<svg id="2319eeb2-1aac-4e6e-a615-b5c712423f73" data-name="Layer 1" xmlns="http://www.w3.org/2000/svg" xmlns:xlink="http://www.w3.org/1999/xlink" viewBox="0 0 140 130"><defs><clipPath id="2a1ee138-527e-48ae-b1e2-6b85e62fb969"><path d="M58.11,87,58,116.32s27.46,1.34,27.46-19.61c0,0,2.15-11.9-3.72-20.57C69.32,85,58.11,87,58.11,87Z" fill="none"/></clipPath><clipPath id="cbebf8b9-8c07-404e-86aa-09e79533c592"><rect x="47.39" y="33.02" width="48.74" height="48.74" fill="none"/></clipPath><clipPath id="10bb9ff8-2930-40a9-a1c0-ce5633478692"><rect x="47.39" y="81.76" width="48.74" height="48.74" fill="none"/></clipPath><clipPath id="08b25deb-cd61-4070-8aa4-af1761e2b446"><polygon points="104.25 81.39 104.25 117.22 130.12 117.22 109.05 81.52 104.25 81.39" fill="none"/></clipPath><clipPath id="5b0f33d5-e1c4-4d36-b188-2416581bdf16"><rect x="96.13" y="33.02" width="48.74" height="48.74" fill="none"/></clipPath><clipPath id="ac1634c3-4c4c-4fda-a0be-d4c14775c592"><rect x="96.13" y="81.76" width="48.74" height="48.74" fill="none"/></clipPath><clipPath id="dcc47357-7da8-45ea-876f-b97c420a45e9"><polygon points="23.63 97.84 23.6 118.1 28.69 117.95 35.76 95.41 32.77 91.99 23.63 97.84" fill="none"/></clipPath><clipPath id="839039a0-1495-45a5-a772-e0936c2493a9"><rect x="-1.34" y="81.76" width="48.74" height="48.74" fill="none"/></clipPath></defs><title>elixir-fountain-logo</title><path d="M81.69,76.14C78.52,80.33,69,90.86,53.81,90.05a7.88,7.88,0,0,0,.09-1.2,8.37,8.37,0,0,0-16.7-.73c-3.85.1-6,1-7.16,2a27.53,27.53,0,1,0,51.65-14Z" fill="#5f4bb6"/><circle cx="62.14" cy="78.96" r="3.54" fill="#5f4bb6"/><circle cx="51.52" cy="70.6" r="2.59" fill="#5f4bb6"/><path d="M55.88,113.93c-7.23,0-13.28-4.93-16.24-7.87l-.15-.15a.73.73,0,0,1,.86-1.18,1.89,1.89,0,0,1,.32.29c2.8,2.78,8.51,7.44,15.21,7.44a.74.74,0,0,1,0,1.47Z" fill="#fff"/><path d="M103.4,50.21a.8.8,0,0,1-.8-.8V27a21,21,0,0,0-42.09,0v8a.83.83,0,0,1-.78.86.87.87,0,0,1-.82-.86V27a22.65,22.65,0,1,1,45.3,0V49.41A.8.8,0,0,1,103.4,50.21Z" fill="#5f4bb6"/><path d="M97.61,50.32a.8.8,0,0,1-.8-.8V27A15.26,15.26,0,0,0,66.3,27v8.85a.81.81,0,1,1-1.61,0V27a16.87,16.87,0,0,1,33.73,0V49.52A.8.8,0,0,1,97.61,50.32Z" fill="#5f4bb6"/><path d="M20.35,65.19a.8.8,0,0,0,.81-.8V34.05a16.06,16.06,0,0,1,32.12,0v1a.81.81,0,1,0,1.61,0v-1a17.67,17.67,0,0,0-35.34,0V64.39A.8.8,0,0,0,20.35,65.19Z" fill="#5f4bb6"/><path d="M26.14,65.26a.8.8,0,0,0,.81-.8V34.05a10.27,10.27,0,0,1,20.54,0V36a.81.81,0,0,0,1.61,0V34.05a11.88,11.88,0,0,0-23.76,0V64.46A.8.8,0,0,0,26.14,65.26Z" fill="#5f4bb6"/><path d="M107.61,50.9h-.15a.73.73,0,0,1-.56-.87,18.92,18.92,0,0,1,5.18-8.39c3.08-2.84,7.32-6.08,10-5.42a2.35,2.35,0,0,1,1.7,1.56,2.15,2.15,0,0,1-.5,2.29c-1.44,1.51-5.17,2-8.43,1.08-.56.47-1.16,1-1.79,1.56a18.09,18.09,0,0,0-4.74,7.62A.74.74,0,0,1,107.61,50.9ZM116.35,40c2.55.43,5.05,0,5.88-.92a.69.69,0,0,0,.18-.78.89.89,0,0,0-.67-.64C120.86,37.41,119.05,38,116.35,40Z" fill="#5f4bb6"/><g opacity="0.5"><g clip-path="url(#2a1ee138-527e-48ae-b1e2-6b85e62fb969)"><g clip-path="url(#cbebf8b9-8c07-404e-86aa-09e79533c592)"><circle cx="92.84" cy="52.63" r="1" fill="#fff"/><circle cx="92.84" cy="45.67" r="1" fill="#fff"/><circle cx="92.84" cy="59.59" r="1" fill="#fff"/><circle cx="95.63" cy="56.11" r="1" fill="#fff"/><circle cx="90.65" cy="56.11" r="1" fill="#fff"/><circle cx="95.6" cy="63.07" r="1" fill="#fff"/><circle cx="90.61" cy="63.07" r="1" fill="#fff"/><circle cx="95.36" cy="49.15" r="1" fill="#fff"/><circle cx="90.38" cy="49.15" r="1" fill="#fff"/><circle cx="92.84" cy="38.71" r="1" fill="#fff"/><circle cx="95.63" cy="35.23" r="1" fill="#fff"/><circle cx="90.65" cy="35.23" r="1" fill="#fff"/><circle cx="95.6" cy="42.19" r="1" fill="#fff"/><circle cx="90.61" cy="42.19" r="1" fill="#fff"/><circle cx="92.84" cy="73.51" r="1" fill="#fff"/><circle cx="92.84" cy="66.55" r="1" fill="#fff"/><circle cx="92.84" cy="80.47" r="1" fill="#fff"/><circle cx="95.63" cy="76.99" r="1" fill="#fff"/><circle cx="90.65" cy="76.99" r="1" fill="#fff"/><circle cx="95.36" cy="70.03" r="1" fill="#fff"/><circle cx="90.38" cy="70.03" r="1" fill="#fff"/><circle cx="73.42" cy="52.65" r="1" fill="#fff"/><circle cx="68.44" cy="52.65" r="1" fill="#fff"/><circle cx="78.41" cy="52.65" r="1" fill="#fff"/><circle cx="83.39" cy="52.65" r="1" fill="#fff"/><circle cx="88.37" cy="52.65" r="1" fill="#fff"/><circle cx="73.42" cy="45.68" r="1" fill="#fff"/><circle cx="68.44" cy="45.68" r="1" fill="#fff"/><circle cx="78.41" cy="45.68" r="1" fill="#fff"/><circle cx="83.39" cy="45.68" r="1" fill="#fff"/><circle cx="88.37" cy="45.68" r="1" fill="#fff"/><circle cx="73.42" cy="38.71" r="1" fill="#fff"/><circle cx="68.44" cy="38.71" r="1" fill="#fff"/><circle cx="78.41" cy="38.71" r="1" fill="#fff"/><circle cx="83.39" cy="38.71" r="1" fill="#fff"/><circle cx="88.37" cy="38.71" r="1" fill="#fff"/><circle cx="73.42" cy="59.62" r="1" fill="#fff"/><circle cx="68.44" cy="59.62" r="1" fill="#fff"/><circle cx="78.41" cy="59.62" r="1" fill="#fff"/><circle cx="83.39" cy="59.62" r="1" fill="#fff"/><circle cx="88.37" cy="59.62" r="1" fill="#fff"/><circle cx="73.42" cy="80.53" r="1" fill="#fff"/><circle cx="68.44" cy="80.53" r="1" fill="#fff"/><circle cx="78.41" cy="80.53" r="1" fill="#fff"/><circle cx="83.39" cy="80.53" r="1" fill="#fff"/><circle cx="88.37" cy="80.53" r="1" fill="#fff"/><circle cx="71.23" cy="56.13" r="1" fill="#fff"/><circle cx="66.24" cy="56.13" r="1" fill="#fff"/><circle cx="76.21" cy="56.13" r="1" fill="#fff"/><circle cx="81.2" cy="56.13" r="1" fill="#fff"/><circle cx="86.18" cy="56.13" r="1" fill="#fff"/><circle cx="71.19" cy="63.1" r="1" fill="#fff"/><circle cx="66.21" cy="63.1" r="1" fill="#fff"/><circle cx="76.18" cy="63.1" r="1" fill="#fff"/><circle cx="81.16" cy="63.1" r="1" fill="#fff"/><circle cx="86.15" cy="63.1" r="1" fill="#fff"/><circle cx="70.96" cy="49.16" r="1" fill="#fff"/><circle cx="65.98" cy="49.16" r="1" fill="#fff"/><circle cx="75.95" cy="49.16" r="1" fill="#fff"/><circle cx="80.93" cy="49.16" r="1" fill="#fff"/><circle cx="85.91" cy="49.16" r="1" fill="#fff"/><circle cx="49.09" cy="52.63" r="1" fill="#fff"/><circle cx="44.11" cy="52.63" r="1" fill="#fff"/><circle cx="54.07" cy="52.63" r="1" fill="#fff"/><circle cx="59.06" cy="52.63" r="1" fill="#fff"/><circle cx="64.04" cy="52.63" r="1" fill="#fff"/><circle cx="49.09" cy="45.67" r="1" fill="#fff"/><circle cx="44.11" cy="45.67" r="1" fill="#fff"/><circle cx="54.07" cy="45.67" r="1" fill="#fff"/><circle cx="59.06" cy="45.67" r="1" fill="#fff"/><circle cx="64.04" cy="45.67" r="1" fill="#fff"/><circle cx="49.09" cy="59.59" r="1" fill="#fff"/><circle cx="44.11" cy="59.59" r="1" fill="#fff"/><circle cx="54.07" cy="59.59" r="1" fill="#fff"/><circle cx="59.06" cy="59.59" r="1" fill="#fff"/><circle cx="64.04" cy="59.59" r="1" fill="#fff"/><circle cx="46.89" cy="56.11" r="1" fill="#fff"/><circle cx="41.91" cy="56.11" r="1" fill="#fff"/><circle cx="51.88" cy="56.11" r="1" fill="#fff"/><circle cx="56.86" cy="56.11" r="1" fill="#fff"/><circle cx="61.85" cy="56.11" r="1" fill="#fff"/><circle cx="46.86" cy="63.07" r="1" fill="#fff"/><circle cx="41.88" cy="63.07" r="1" fill="#fff"/><circle cx="51.84" cy="63.07" r="1" fill="#fff"/><circle cx="56.83" cy="63.07" r="1" fill="#fff"/><circle cx="61.81" cy="63.07" r="1" fill="#fff"/><circle cx="46.63" cy="49.15" r="1" fill="#fff"/><circle cx="41.64" cy="49.15" r="1" fill="#fff"/><circle cx="51.61" cy="49.15" r="1" fill="#fff"/><circle cx="56.6" cy="49.15" r="1" fill="#fff"/><circle cx="61.58" cy="49.15" r="1" fill="#fff"/><circle cx="71.23" cy="35.23" r="1" fill="#fff"/><circle cx="66.24" cy="35.23" r="1" fill="#fff"/><circle cx="76.21" cy="35.23" r="1" fill="#fff"/><circle cx="81.2" cy="35.23" r="1" fill="#fff"/><circle cx="86.18" cy="35.23" r="1" fill="#fff"/><circle cx="71.19" cy="42.2" r="1" fill="#fff"/><circle cx="66.21" cy="42.2" r="1" fill="#fff"/><circle cx="76.18" cy="42.2" r="1" fill="#fff"/><circle cx="81.16" cy="42.2" r="1" fill="#fff"/><circle cx="86.15" cy="42.2" r="1" fill="#fff"/><circle cx="49.09" cy="38.71" r="1" fill="#fff"/><circle cx="44.11" cy="38.71" r="1" fill="#fff"/><circle cx="54.07" cy="38.71" r="1" fill="#fff"/><circle cx="59.06" cy="38.71" r="1" fill="#fff"/><circle cx="64.04" cy="38.71" r="1" fill="#fff"/><circle cx="46.89" cy="35.23" r="1" fill="#fff"/><circle cx="41.91" cy="35.23" r="1" fill="#fff"/><circle cx="51.88" cy="35.23" r="1" fill="#fff"/><circle cx="56.86" cy="35.23" r="1" fill="#fff"/><circle cx="61.85" cy="35.23" r="1" fill="#fff"/><circle cx="46.86" cy="42.19" r="1" fill="#fff"/><circle cx="41.88" cy="42.19" r="1" fill="#fff"/><circle cx="51.84" cy="42.19" r="1" fill="#fff"/><circle cx="56.83" cy="42.19" r="1" fill="#fff"/><circle cx="61.81" cy="42.19" r="1" fill="#fff"/><circle cx="73.42" cy="73.56" r="1" fill="#fff"/><circle cx="68.44" cy="73.56" r="1" fill="#fff"/><circle cx="78.41" cy="73.56" r="1" fill="#fff"/><circle cx="83.39" cy="73.56" r="1" fill="#fff"/><circle cx="88.37" cy="73.56" r="1" fill="#fff"/><circle cx="73.42" cy="66.59" r="1" fill="#fff"/><circle cx="68.44" cy="66.59" r="1" fill="#fff"/><circle cx="78.41" cy="66.59" r="1" fill="#fff"/><circle cx="83.39" cy="66.59" r="1" fill="#fff"/><circle cx="88.37" cy="66.59" r="1" fill="#fff"/><circle cx="71.23" cy="77.04" r="1" fill="#fff"/><circle cx="66.24" cy="77.04" r="1" fill="#fff"/><circle cx="76.21" cy="77.04" r="1" fill="#fff"/><circle cx="81.2" cy="77.04" r="1" fill="#fff"/><circle cx="86.18" cy="77.04" r="1" fill="#fff"/><circle cx="70.96" cy="70.07" r="1" fill="#fff"/><circle cx="65.98" cy="70.07" r="1" fill="#fff"/><circle cx="75.95" cy="70.07" r="1" fill="#fff"/><circle cx="80.93" cy="70.07" r="1" fill="#fff"/><circle cx="85.91" cy="70.07" r="1" fill="#fff"/><circle cx="49.09" cy="73.51" r="1" fill="#fff"/><circle cx="44.11" cy="73.51" r="1" fill="#fff"/><circle cx="54.07" cy="73.51" r="1" fill="#fff"/><circle cx="59.06" cy="73.51" r="1" fill="#fff"/><circle cx="64.04" cy="73.51" r="1" fill="#fff"/><circle cx="49.09" cy="66.55" r="1" fill="#fff"/><circle cx="44.11" cy="66.55" r="1" fill="#fff"/><circle cx="54.07" cy="66.55" r="1" fill="#fff"/><circle cx="59.06" cy="66.55" r="1" fill="#fff"/><circle cx="64.04" cy="66.55" r="1" fill="#fff"/><circle cx="49.09" cy="80.47" r="1" fill="#fff"/><circle cx="44.11" cy="80.47" r="1" fill="#fff"/><circle cx="54.07" cy="80.47" r="1" fill="#fff"/><circle cx="59.06" cy="80.47" r="1" fill="#fff"/><circle cx="64.04" cy="80.47" r="1" fill="#fff"/><circle cx="46.89" cy="76.99" r="1" fill="#fff"/><circle cx="41.91" cy="76.99" r="1" fill="#fff"/><circle cx="51.88" cy="76.99" r="1" fill="#fff"/><circle cx="56.86" cy="76.99" r="1" fill="#fff"/><circle cx="61.85" cy="76.99" r="1" fill="#fff"/><circle cx="46.63" cy="70.03" r="1" fill="#fff"/><circle cx="41.64" cy="70.03" r="1" fill="#fff"/><circle cx="51.61" cy="70.03" r="1" fill="#fff"/><circle cx="56.6" cy="70.03" r="1" fill="#fff"/><circle cx="61.58" cy="70.03" r="1" fill="#fff"/></g><g clip-path="url(#10bb9ff8-2930-40a9-a1c0-ce5633478692)"><circle cx="92.84" cy="101.37" r="1" fill="#fff"/><circle cx="92.84" cy="94.41" r="1" fill="#fff"/><circle cx="92.84" cy="108.33" r="1" fill="#fff"/><circle cx="95.63" cy="104.85" r="1" fill="#fff"/><circle cx="90.65" cy="104.85" r="1" fill="#fff"/><circle cx="95.6" cy="111.81" r="1" fill="#fff"/><circle cx="90.61" cy="111.81" r="1" fill="#fff"/><circle cx="95.36" cy="97.89" r="1" fill="#fff"/><circle cx="90.38" cy="97.89" r="1" fill="#fff"/><circle cx="92.84" cy="87.44" r="1" fill="#fff"/><circle cx="95.63" cy="83.96" r="1" fill="#fff"/><circle cx="90.65" cy="83.96" r="1" fill="#fff"/><circle cx="95.6" cy="90.92" r="1" fill="#fff"/><circle cx="90.61" cy="90.92" r="1" fill="#fff"/><circle cx="92.84" cy="122.25" r="1" fill="#fff"/><circle cx="92.84" cy="115.29" r="1" fill="#fff"/><circle cx="92.84" cy="129.21" r="1" fill="#fff"/><circle cx="95.63" cy="125.73" r="1" fill="#fff"/><circle cx="90.65" cy="125.73" r="1" fill="#fff"/><circle cx="95.36" cy="118.77" r="1" fill="#fff"/><circle cx="90.38" cy="118.77" r="1" fill="#fff"/><circle cx="73.42" cy="101.39" r="1" fill="#fff"/><circle cx="68.44" cy="101.39" r="1" fill="#fff"/><circle cx="78.41" cy="101.39" r="1" fill="#fff"/><circle cx="83.39" cy="101.39" r="1" fill="#fff"/><circle cx="88.37" cy="101.39" r="1" fill="#fff"/><circle cx="73.42" cy="94.42" r="1" fill="#fff"/><circle cx="68.44" cy="94.42" r="1" fill="#fff"/><circle cx="78.41" cy="94.42" r="1" fill="#fff"/><circle cx="83.39" cy="94.42" r="1" fill="#fff"/><circle cx="88.37" cy="94.42" r="1" fill="#fff"/><circle cx="73.42" cy="87.45" r="1" fill="#fff"/><circle cx="68.44" cy="87.45" r="1" fill="#fff"/><circle cx="78.41" cy="87.45" r="1" fill="#fff"/><circle cx="83.39" cy="87.45" r="1" fill="#fff"/><circle cx="88.37" cy="87.45" r="1" fill="#fff"/><circle cx="73.42" cy="108.36" r="1" fill="#fff"/><circle cx="68.44" cy="108.36" r="1" fill="#fff"/><circle cx="78.41" cy="108.36" r="1" fill="#fff"/><circle cx="83.39" cy="108.36" r="1" fill="#fff"/><circle cx="88.37" cy="108.36" r="1" fill="#fff"/><circle cx="73.42" cy="129.26" r="1" fill="#fff"/><circle cx="68.44" cy="129.26" r="1" fill="#fff"/><circle cx="78.41" cy="129.26" r="1" fill="#fff"/><circle cx="83.39" cy="129.26" r="1" fill="#fff"/><circle cx="88.37" cy="129.26" r="1" fill="#fff"/><circle cx="71.23" cy="104.87" r="1" fill="#fff"/><circle cx="66.24" cy="104.87" r="1" fill="#fff"/><circle cx="76.21" cy="104.87" r="1" fill="#fff"/><circle cx="81.2" cy="104.87" r="1" fill="#fff"/><circle cx="86.18" cy="104.87" r="1" fill="#fff"/><circle cx="71.19" cy="111.84" r="1" fill="#fff"/><circle cx="66.21" cy="111.84" r="1" fill="#fff"/><circle cx="76.18" cy="111.84" r="1" fill="#fff"/><circle cx="81.16" cy="111.84" r="1" fill="#fff"/><circle cx="86.15" cy="111.84" r="1" fill="#fff"/><circle cx="70.96" cy="97.9" r="1" fill="#fff"/><circle cx="65.98" cy="97.9" r="1" fill="#fff"/><circle cx="75.95" cy="97.9" r="1" fill="#fff"/><circle cx="80.93" cy="97.9" r="1" fill="#fff"/><circle cx="85.91" cy="97.9" r="1" fill="#fff"/><circle cx="49.09" cy="101.37" r="1" fill="#fff"/><circle cx="44.11" cy="101.37" r="1" fill="#fff"/><circle cx="54.07" cy="101.37" r="1" fill="#fff"/><circle cx="59.06" cy="101.37" r="1" fill="#fff"/><circle cx="64.04" cy="101.37" r="1" fill="#fff"/><circle cx="49.09" cy="94.41" r="1" fill="#fff"/><circle cx="44.11" cy="94.41" r="1" fill="#fff"/><circle cx="54.07" cy="94.41" r="1" fill="#fff"/><circle cx="59.06" cy="94.41" r="1" fill="#fff"/><circle cx="64.04" cy="94.41" r="1" fill="#fff"/><circle cx="49.09" cy="108.33" r="1" fill="#fff"/><circle cx="44.11" cy="108.33" r="1" fill="#fff"/><circle cx="54.07" cy="108.33" r="1" fill="#fff"/><circle cx="59.06" cy="108.33" r="1" fill="#fff"/><circle cx="64.04" cy="108.33" r="1" fill="#fff"/><circle cx="46.89" cy="104.85" r="1" fill="#fff"/><circle cx="41.91" cy="104.85" r="1" fill="#fff"/><circle cx="51.88" cy="104.85" r="1" fill="#fff"/><circle cx="56.86" cy="104.85" r="1" fill="#fff"/><circle cx="61.85" cy="104.85" r="1" fill="#fff"/><circle cx="46.86" cy="111.81" r="1" fill="#fff"/><circle cx="41.88" cy="111.81" r="1" fill="#fff"/><circle cx="51.84" cy="111.81" r="1" fill="#fff"/><circle cx="56.83" cy="111.81" r="1" fill="#fff"/><circle cx="61.81" cy="111.81" r="1" fill="#fff"/><circle cx="46.63" cy="97.89" r="1" fill="#fff"/><circle cx="41.64" cy="97.89" r="1" fill="#fff"/><circle cx="51.61" cy="97.89" r="1" fill="#fff"/><circle cx="56.6" cy="97.89" r="1" fill="#fff"/><circle cx="61.58" cy="97.89" r="1" fill="#fff"/><circle cx="71.23" cy="83.96" r="1" fill="#fff"/><circle cx="66.24" cy="83.96" r="1" fill="#fff"/><circle cx="76.21" cy="83.96" r="1" fill="#fff"/><circle cx="81.2" cy="83.96" r="1" fill="#fff"/><circle cx="86.18" cy="83.96" r="1" fill="#fff"/><circle cx="71.19" cy="90.93" r="1" fill="#fff"/><circle cx="66.21" cy="90.93" r="1" fill="#fff"/><circle cx="76.18" cy="90.93" r="1" fill="#fff"/><circle cx="81.16" cy="90.93" r="1" fill="#fff"/><circle cx="86.15" cy="90.93" r="1" fill="#fff"/><circle cx="49.09" cy="87.44" r="1" fill="#fff"/><circle cx="44.11" cy="87.44" r="1" fill="#fff"/><circle cx="54.07" cy="87.44" r="1" fill="#fff"/><circle cx="59.06" cy="87.44" r="1" fill="#fff"/><circle cx="64.04" cy="87.44" r="1" fill="#fff"/><circle cx="46.89" cy="83.96" r="1" fill="#fff"/><circle cx="41.91" cy="83.96" r="1" fill="#fff"/><circle cx="51.88" cy="83.96" r="1" fill="#fff"/><circle cx="56.86" cy="83.96" r="1" fill="#fff"/><circle cx="61.85" cy="83.96" r="1" fill="#fff"/><circle cx="46.86" cy="90.92" r="1" fill="#fff"/><circle cx="41.88" cy="90.92" r="1" fill="#fff"/><circle cx="51.84" cy="90.92" r="1" fill="#fff"/><circle cx="56.83" cy="90.92" r="1" fill="#fff"/><circle cx="61.81" cy="90.92" r="1" fill="#fff"/><circle cx="73.42" cy="122.29" r="1" fill="#fff"/><circle cx="68.44" cy="122.29" r="1" fill="#fff"/><circle cx="78.41" cy="122.29" r="1" fill="#fff"/><circle cx="83.39" cy="122.29" r="1" fill="#fff"/><circle cx="88.37" cy="122.29" r="1" fill="#fff"/><circle cx="73.42" cy="115.32" r="1" fill="#fff"/><circle cx="68.44" cy="115.32" r="1" fill="#fff"/><circle cx="78.41" cy="115.32" r="1" fill="#fff"/><circle cx="83.39" cy="115.32" r="1" fill="#fff"/><circle cx="88.37" cy="115.32" r="1" fill="#fff"/><circle cx="71.23" cy="125.78" r="1" fill="#fff"/><circle cx="66.24" cy="125.78" r="1" fill="#fff"/><circle cx="76.21" cy="125.78" r="1" fill="#fff"/><circle cx="81.2" cy="125.78" r="1" fill="#fff"/><circle cx="86.18" cy="125.78" r="1" fill="#fff"/><circle cx="70.96" cy="118.81" r="1" fill="#fff"/><circle cx="65.98" cy="118.81" r="1" fill="#fff"/><circle cx="75.95" cy="118.81" r="1" fill="#fff"/><circle cx="80.93" cy="118.81" r="1" fill="#fff"/><circle cx="85.91" cy="118.81" r="1" fill="#fff"/><circle cx="49.09" cy="122.25" r="1" fill="#fff"/><circle cx="44.11" cy="122.25" r="1" fill="#fff"/><circle cx="54.07" cy="122.25" r="1" fill="#fff"/><circle cx="59.06" cy="122.25" r="1" fill="#fff"/><circle cx="64.04" cy="122.25" r="1" fill="#fff"/><circle cx="49.09" cy="115.29" r="1" fill="#fff"/><circle cx="44.11" cy="115.29" r="1" fill="#fff"/><circle cx="54.07" cy="115.29" r="1" fill="#fff"/><circle cx="59.06" cy="115.29" r="1" fill="#fff"/><circle cx="64.04" cy="115.29" r="1" fill="#fff"/><circle cx="49.09" cy="129.21" r="1" fill="#fff"/><circle cx="44.11" cy="129.21" r="1" fill="#fff"/><circle cx="54.07" cy="129.21" r="1" fill="#fff"/><circle cx="59.06" cy="129.21" r="1" fill="#fff"/><circle cx="64.04" cy="129.21" r="1" fill="#fff"/><circle cx="46.89" cy="125.73" r="1" fill="#fff"/><circle cx="41.91" cy="125.73" r="1" fill="#fff"/><circle cx="51.88" cy="125.73" r="1" fill="#fff"/><circle cx="56.86" cy="125.73" r="1" fill="#fff"/><circle cx="61.85" cy="125.73" r="1" fill="#fff"/><circle cx="46.63" cy="118.77" r="1" fill="#fff"/><circle cx="41.64" cy="118.77" r="1" fill="#fff"/><circle cx="51.61" cy="118.77" r="1" fill="#fff"/><circle cx="56.6" cy="118.77" r="1" fill="#fff"/><circle cx="61.58" cy="118.77" r="1" fill="#fff"/></g></g></g><path d="M57.69,117.92a28.34,28.34,0,0,1-5.47-56.15L51.11,48.54l.39-.26c.18-.12,1.82-1.16,5.87-1.16a14.55,14.55,0,0,1,5.53,1.09l.5.23-.75,13.23a28.34,28.34,0,0,1-5,56.25ZM52.8,49.42,53.94,63.1l-.73.12a26.73,26.73,0,1,0,8.47-.08L61,63l.77-13.55a13.48,13.48,0,0,0-4.36-.75A12.34,12.34,0,0,0,52.8,49.42Z" fill="#ccc"/><path d="M57.69,124.21A34.68,34.68,0,0,1,23.06,89.58,34.32,34.32,0,0,1,30,68.84,35.06,35.06,0,0,1,46.19,56.9l-.43-4.35L43.69,53l-.56-.36c-.45-.3-1.6-1.35-2.61-4.73a8.91,8.91,0,0,1,.32-5.71l.24-.53.53-.26A40,40,0,0,1,57.14,38,39.36,39.36,0,0,1,73,41.69l.59.3.22.63A10.18,10.18,0,0,1,74,47.49c-.79,3.84-2.4,4.86-2.87,5.08l-.47.22-1.52-.29-.4,4.25A34.89,34.89,0,0,1,85.28,68.64a34.3,34.3,0,0,1,7,20.94A34.67,34.67,0,0,1,57.69,124.21ZM48.61,48.65l1,10.52-1.25.39A31.62,31.62,0,0,0,32.53,70.77a31.13,31.13,0,0,0-6.25,18.81,31.42,31.42,0,0,0,62.83,0,31.12,31.12,0,0,0-6.39-19A31.7,31.7,0,0,0,66.56,59.43l-1.28-.37,1-10.37,3.66.69a7.53,7.53,0,0,0,.92-2.54,7.12,7.12,0,0,0,0-2.57,36.39,36.39,0,0,0-13.72-3.05A37.27,37.27,0,0,0,43.6,44a5.45,5.45,0,0,0,0,2.94,11.07,11.07,0,0,0,1,2.52Z" fill="#333"/><path d="M134.21,113.53l-24.77-41,.5-7.37,2.74.52s1.28-.6,2-3.94a8.49,8.49,0,0,0-.17-4,33.19,33.19,0,0,0-14.42-3.51,30.93,30.93,0,0,0-13.82,3.24A7.11,7.11,0,0,0,86,62c.94,3.17,1.94,3.83,1.94,3.83l3.16-.68.54,7.48-25,40.9a6,6,0,0,0,5.19,9.07H129A6,6,0,0,0,134.21,113.53Z" fill="#fff"/><path d="M71.82,125.67A9.1,9.1,0,0,1,64,112l24.53-40.1-.22-3-1,.21-1.07-.7c-.89-.58-2.16-2-3.21-5.53a10.06,10.06,0,0,1,.39-6.71l.42-.92.88-.49a34,34,0,0,1,15.32-3.63A36.12,36.12,0,0,1,116,55l1,.58.39,1.13a11.49,11.49,0,0,1,.26,5.62c-.9,4.38-2.87,5.73-3.68,6.1l-.89.42-.31-.06-.2,3L136.85,112A9.09,9.09,0,0,1,129,125.67Zm23-52.28L69.25,115.13a2.95,2.95,0,0,0,2.57,4.4H129a3,3,0,0,0,2.55-4.44L106.32,73.26l.79-11.77,4.21.79a8.3,8.3,0,0,0,.32-1.18,4.94,4.94,0,0,0,.09-1.3,30.7,30.7,0,0,0-11.67-2.54,29.05,29.05,0,0,0-11.23,2.33,3.73,3.73,0,0,0,.11,1.53c.15.51.3.93.43,1.26l4.54-1Z" fill="#fff"/><path d="M129,124.21H71.82a7.63,7.63,0,0,1-6.58-11.49L90,72.23l-.37-5.12-2,.43-.56-.37c-.45-.29-1.6-1.34-2.6-4.71a8.63,8.63,0,0,1,.31-5.69l.22-.49.46-.26a32.56,32.56,0,0,1,14.61-3.43,34.64,34.64,0,0,1,15.19,3.7l.55.3.2.6a10,10,0,0,1,.22,4.86c-.79,3.83-2.39,4.85-2.86,5.07l-.47.21-1.47-.27-.34,5,24.52,40.61A7.63,7.63,0,0,1,129,124.21Zm-36.45-61L93.29,73,68,114.37A4.41,4.41,0,0,0,71.82,121H129a4.41,4.41,0,0,0,3.81-6.64l-25-41.45.65-9.67,3.69.69a7.74,7.74,0,0,0,.94-5.11,32,32,0,0,0-13-3,30.05,30.05,0,0,0-12.51,2.77,5.51,5.51,0,0,0,0,3,11.14,11.14,0,0,0,1,2.51Z" fill="#333"/><path d="M71.18,115,86.85,89.59c5.91,5.2,8.77,4.89,11.56,3.39a5.36,5.36,0,0,1-.56-2.4,5.47,5.47,0,0,1,10.76-1.36,12.36,12.36,0,0,1,6.66,2.19l14.39,23.21a2.11,2.11,0,0,1-1.84,3.37l-54.48.11C71.45,118.1,70.25,116.69,71.18,115Z" fill="#26f0f1"/><path d="M75.22,114.58a.77.77,0,0,1-.39-.11.74.74,0,0,1-.24-1L91.16,86.59a.73.73,0,0,1,1.25.77L75.84,114.23A.75.75,0,0,1,75.22,114.58Z" fill="#fff"/><g opacity="0.5"><g clip-path="url(#08b25deb-cd61-4070-8aa4-af1761e2b446)"><g clip-path="url(#5b0f33d5-e1c4-4d36-b188-2416581bdf16)"><circle cx="139.38" cy="56.11" r="1" fill="#fff"/><circle cx="139.35" cy="63.07" r="1" fill="#fff"/><circle cx="139.12" cy="49.15" r="1" fill="#fff"/><circle cx="139.38" cy="35.23" r="1" fill="#fff"/><circle cx="139.35" cy="42.19" r="1" fill="#fff"/><circle cx="139.38" cy="76.99" r="1" fill="#fff"/><circle cx="139.12" cy="70.03" r="1" fill="#fff"/><circle cx="122.16" cy="52.65" r="1" fill="#fff"/><circle cx="117.18" cy="52.65" r="1" fill="#fff"/><circle cx="127.14" cy="52.65" r="1" fill="#fff"/><circle cx="132.13" cy="52.65" r="1" fill="#fff"/><circle cx="137.11" cy="52.65" r="1" fill="#fff"/><circle cx="122.16" cy="45.68" r="1" fill="#fff"/><circle cx="117.18" cy="45.68" r="1" fill="#fff"/><circle cx="127.14" cy="45.68" r="1" fill="#fff"/><circle cx="132.13" cy="45.68" r="1" fill="#fff"/><circle cx="137.11" cy="45.68" r="1" fill="#fff"/><circle cx="122.16" cy="38.71" r="1" fill="#fff"/><circle cx="117.18" cy="38.71" r="1" fill="#fff"/><circle cx="127.14" cy="38.71" r="1" fill="#fff"/><circle cx="132.13" cy="38.71" r="1" fill="#fff"/><circle cx="137.11" cy="38.71" r="1" fill="#fff"/><circle cx="122.16" cy="59.62" r="1" fill="#fff"/><circle cx="117.18" cy="59.62" r="1" fill="#fff"/><circle cx="127.14" cy="59.62" r="1" fill="#fff"/><circle cx="132.13" cy="59.62" r="1" fill="#fff"/><circle cx="137.11" cy="59.62" r="1" fill="#fff"/><circle cx="122.16" cy="80.53" r="1" fill="#fff"/><circle cx="117.18" cy="80.53" r="1" fill="#fff"/><circle cx="127.14" cy="80.53" r="1" fill="#fff"/><circle cx="132.13" cy="80.53" r="1" fill="#fff"/><circle cx="137.11" cy="80.53" r="1" fill="#fff"/><circle cx="119.96" cy="56.13" r="1" fill="#fff"/><circle cx="114.98" cy="56.13" r="1" fill="#fff"/><circle cx="124.95" cy="56.13" r="1" fill="#fff"/><circle cx="129.93" cy="56.13" r="1" fill="#fff"/><circle cx="134.92" cy="56.13" r="1" fill="#fff"/><circle cx="119.93" cy="63.1" r="1" fill="#fff"/><circle cx="114.95" cy="63.1" r="1" fill="#fff"/><circle cx="124.91" cy="63.1" r="1" fill="#fff"/><circle cx="129.9" cy="63.1" r="1" fill="#fff"/><circle cx="134.88" cy="63.1" r="1" fill="#fff"/><circle cx="119.7" cy="49.16" r="1" fill="#fff"/><circle cx="114.71" cy="49.16" r="1" fill="#fff"/><circle cx="124.68" cy="49.16" r="1" fill="#fff"/><circle cx="129.67" cy="49.16" r="1" fill="#fff"/><circle cx="134.65" cy="49.16" r="1" fill="#fff"/><circle cx="97.83" cy="52.63" r="1" fill="#fff"/><circle cx="92.84" cy="52.63" r="1" fill="#fff"/><circle cx="102.81" cy="52.63" r="1" fill="#fff"/><circle cx="107.79" cy="52.63" r="1" fill="#fff"/><circle cx="112.78" cy="52.63" r="1" fill="#fff"/><circle cx="97.83" cy="45.67" r="1" fill="#fff"/><circle cx="92.84" cy="45.67" r="1" fill="#fff"/><circle cx="102.81" cy="45.67" r="1" fill="#fff"/><circle cx="107.79" cy="45.67" r="1" fill="#fff"/><circle cx="112.78" cy="45.67" r="1" fill="#fff"/><circle cx="97.83" cy="59.59" r="1" fill="#fff"/><circle cx="92.84" cy="59.59" r="1" fill="#fff"/><circle cx="102.81" cy="59.59" r="1" fill="#fff"/><circle cx="107.79" cy="59.59" r="1" fill="#fff"/><circle cx="112.78" cy="59.59" r="1" fill="#fff"/><circle cx="95.63" cy="56.11" r="1" fill="#fff"/><circle cx="90.65" cy="56.11" r="1" fill="#fff"/><circle cx="100.61" cy="56.11" r="1" fill="#fff"/><circle cx="105.6" cy="56.11" r="1" fill="#fff"/><circle cx="110.58" cy="56.11" r="1" fill="#fff"/><circle cx="95.6" cy="63.07" r="1" fill="#fff"/><circle cx="90.61" cy="63.07" r="1" fill="#fff"/><circle cx="100.58" cy="63.07" r="1" fill="#fff"/><circle cx="105.56" cy="63.07" r="1" fill="#fff"/><circle cx="110.55" cy="63.07" r="1" fill="#fff"/><circle cx="95.36" cy="49.15" r="1" fill="#fff"/><circle cx="90.38" cy="49.15" r="1" fill="#fff"/><circle cx="100.35" cy="49.15" r="1" fill="#fff"/><circle cx="105.33" cy="49.15" r="1" fill="#fff"/><circle cx="110.32" cy="49.15" r="1" fill="#fff"/><circle cx="119.96" cy="35.23" r="1" fill="#fff"/><circle cx="114.98" cy="35.23" r="1" fill="#fff"/><circle cx="124.95" cy="35.23" r="1" fill="#fff"/><circle cx="129.93" cy="35.23" r="1" fill="#fff"/><circle cx="134.92" cy="35.23" r="1" fill="#fff"/><circle cx="119.93" cy="42.2" r="1" fill="#fff"/><circle cx="114.95" cy="42.2" r="1" fill="#fff"/><circle cx="124.91" cy="42.2" r="1" fill="#fff"/><circle cx="129.9" cy="42.2" r="1" fill="#fff"/><circle cx="134.88" cy="42.2" r="1" fill="#fff"/><circle cx="97.83" cy="38.71" r="1" fill="#fff"/><circle cx="92.84" cy="38.71" r="1" fill="#fff"/><circle cx="102.81" cy="38.71" r="1" fill="#fff"/><circle cx="107.79" cy="38.71" r="1" fill="#fff"/><circle cx="112.78" cy="38.71" r="1" fill="#fff"/><circle cx="95.63" cy="35.23" r="1" fill="#fff"/><circle cx="90.65" cy="35.23" r="1" fill="#fff"/><circle cx="100.61" cy="35.23" r="1" fill="#fff"/><circle cx="105.6" cy="35.23" r="1" fill="#fff"/><circle cx="110.58" cy="35.23" r="1" fill="#fff"/><circle cx="95.6" cy="42.19" r="1" fill="#fff"/><circle cx="90.61" cy="42.19" r="1" fill="#fff"/><circle cx="100.58" cy="42.19" r="1" fill="#fff"/><circle cx="105.56" cy="42.19" r="1" fill="#fff"/><circle cx="110.55" cy="42.19" r="1" fill="#fff"/><circle cx="122.16" cy="73.56" r="1" fill="#fff"/><circle cx="117.18" cy="73.56" r="1" fill="#fff"/><circle cx="127.14" cy="73.56" r="1" fill="#fff"/><circle cx="132.13" cy="73.56" r="1" fill="#fff"/><circle cx="137.11" cy="73.56" r="1" fill="#fff"/><circle cx="122.16" cy="66.59" r="1" fill="#fff"/><circle cx="117.18" cy="66.59" r="1" fill="#fff"/><circle cx="127.14" cy="66.59" r="1" fill="#fff"/><circle cx="132.13" cy="66.59" r="1" fill="#fff"/><circle cx="137.11" cy="66.59" r="1" fill="#fff"/><circle cx="119.96" cy="77.04" r="1" fill="#fff"/><circle cx="114.98" cy="77.04" r="1" fill="#fff"/><circle cx="124.95" cy="77.04" r="1" fill="#fff"/><circle cx="129.93" cy="77.04" r="1" fill="#fff"/><circle cx="134.92" cy="77.04" r="1" fill="#fff"/><circle cx="119.7" cy="70.07" r="1" fill="#fff"/><circle cx="114.71" cy="70.07" r="1" fill="#fff"/><circle cx="124.68" cy="70.07" r="1" fill="#fff"/><circle cx="129.67" cy="70.07" r="1" fill="#fff"/><circle cx="134.65" cy="70.07" r="1" fill="#fff"/><circle cx="97.83" cy="73.51" r="1" fill="#fff"/><circle cx="92.84" cy="73.51" r="1" fill="#fff"/><circle cx="102.81" cy="73.51" r="1" fill="#fff"/><circle cx="107.79" cy="73.51" r="1" fill="#fff"/><circle cx="112.78" cy="73.51" r="1" fill="#fff"/><circle cx="97.83" cy="66.55" r="1" fill="#fff"/><circle cx="92.84" cy="66.55" r="1" fill="#fff"/><circle cx="102.81" cy="66.55" r="1" fill="#fff"/><circle cx="107.79" cy="66.55" r="1" fill="#fff"/><circle cx="112.78" cy="66.55" r="1" fill="#fff"/><circle cx="97.83" cy="80.47" r="1" fill="#fff"/><circle cx="92.84" cy="80.47" r="1" fill="#fff"/><circle cx="102.81" cy="80.47" r="1" fill="#fff"/><circle cx="107.79" cy="80.47" r="1" fill="#fff"/><circle cx="112.78" cy="80.47" r="1" fill="#fff"/><circle cx="95.63" cy="76.99" r="1" fill="#fff"/><circle cx="90.65" cy="76.99" r="1" fill="#fff"/><circle cx="100.61" cy="76.99" r="1" fill="#fff"/><circle cx="105.6" cy="76.99" r="1" fill="#fff"/><circle cx="110.58" cy="76.99" r="1" fill="#fff"/><circle cx="95.36" cy="70.03" r="1" fill="#fff"/><circle cx="90.38" cy="70.03" r="1" fill="#fff"/><circle cx="100.35" cy="70.03" r="1" fill="#fff"/><circle cx="105.33" cy="70.03" r="1" fill="#fff"/><circle cx="110.32" cy="70.03" r="1" fill="#fff"/></g><g clip-path="url(#ac1634c3-4c4c-4fda-a0be-d4c14775c592)"><circle cx="139.38" cy="104.85" r="1" fill="#fff"/><circle cx="139.35" cy="111.81" r="1" fill="#fff"/><circle cx="139.12" cy="97.89" r="1" fill="#fff"/><circle cx="139.38" cy="83.96" r="1" fill="#fff"/><circle cx="139.35" cy="90.92" r="1" fill="#fff"/><circle cx="139.38" cy="125.73" r="1" fill="#fff"/><circle cx="139.12" cy="118.77" r="1" fill="#fff"/><circle cx="122.16" cy="101.39" r="1" fill="#fff"/><circle cx="117.18" cy="101.39" r="1" fill="#fff"/><circle cx="127.14" cy="101.39" r="1" fill="#fff"/><circle cx="132.13" cy="101.39" r="1" fill="#fff"/><circle cx="137.11" cy="101.39" r="1" fill="#fff"/><circle cx="122.16" cy="94.42" r="1" fill="#fff"/><circle cx="117.18" cy="94.42" r="1" fill="#fff"/><circle cx="127.14" cy="94.42" r="1" fill="#fff"/><circle cx="132.13" cy="94.42" r="1" fill="#fff"/><circle cx="137.11" cy="94.42" r="1" fill="#fff"/><circle cx="122.16" cy="87.45" r="1" fill="#fff"/><circle cx="117.18" cy="87.45" r="1" fill="#fff"/><circle cx="127.14" cy="87.45" r="1" fill="#fff"/><circle cx="132.13" cy="87.45" r="1" fill="#fff"/><circle cx="137.11" cy="87.45" r="1" fill="#fff"/><circle cx="122.16" cy="108.36" r="1" fill="#fff"/><circle cx="117.18" cy="108.36" r="1" fill="#fff"/><circle cx="127.14" cy="108.36" r="1" fill="#fff"/><circle cx="132.13" cy="108.36" r="1" fill="#fff"/><circle cx="137.11" cy="108.36" r="1" fill="#fff"/><circle cx="122.16" cy="129.26" r="1" fill="#fff"/><circle cx="117.18" cy="129.26" r="1" fill="#fff"/><circle cx="127.14" cy="129.26" r="1" fill="#fff"/><circle cx="132.13" cy="129.26" r="1" fill="#fff"/><circle cx="137.11" cy="129.26" r="1" fill="#fff"/><circle cx="119.96" cy="104.87" r="1" fill="#fff"/><circle cx="114.98" cy="104.87" r="1" fill="#fff"/><circle cx="124.95" cy="104.87" r="1" fill="#fff"/><circle cx="129.93" cy="104.87" r="1" fill="#fff"/><circle cx="134.92" cy="104.87" r="1" fill="#fff"/><circle cx="119.93" cy="111.84" r="1" fill="#fff"/><circle cx="114.95" cy="111.84" r="1" fill="#fff"/><circle cx="124.91" cy="111.84" r="1" fill="#fff"/><circle cx="129.9" cy="111.84" r="1" fill="#fff"/><circle cx="134.88" cy="111.84" r="1" fill="#fff"/><circle cx="119.7" cy="97.9" r="1" fill="#fff"/><circle cx="114.71" cy="97.9" r="1" fill="#fff"/><circle cx="124.68" cy="97.9" r="1" fill="#fff"/><circle cx="129.67" cy="97.9" r="1" fill="#fff"/><circle cx="134.65" cy="97.9" r="1" fill="#fff"/><circle cx="97.83" cy="101.37" r="1" fill="#fff"/><circle cx="92.84" cy="101.37" r="1" fill="#fff"/><circle cx="102.81" cy="101.37" r="1" fill="#fff"/><circle cx="107.79" cy="101.37" r="1" fill="#fff"/><circle cx="112.78" cy="101.37" r="1" fill="#fff"/><circle cx="97.83" cy="94.41" r="1" fill="#fff"/><circle cx="92.84" cy="94.41" r="1" fill="#fff"/><circle cx="102.81" cy="94.41" r="1" fill="#fff"/><circle cx="107.79" cy="94.41" r="1" fill="#fff"/><circle cx="112.78" cy="94.41" r="1" fill="#fff"/><circle cx="97.83" cy="108.33" r="1" fill="#fff"/><circle cx="92.84" cy="108.33" r="1" fill="#fff"/><circle cx="102.81" cy="108.33" r="1" fill="#fff"/><circle cx="107.79" cy="108.33" r="1" fill="#fff"/><circle cx="112.78" cy="108.33" r="1" fill="#fff"/><circle cx="95.63" cy="104.85" r="1" fill="#fff"/><circle cx="90.65" cy="104.85" r="1" fill="#fff"/><circle cx="100.61" cy="104.85" r="1" fill="#fff"/><circle cx="105.6" cy="104.85" r="1" fill="#fff"/><circle cx="110.58" cy="104.85" r="1" fill="#fff"/><circle cx="95.6" cy="111.81" r="1" fill="#fff"/><circle cx="90.61" cy="111.81" r="1" fill="#fff"/><circle cx="100.58" cy="111.81" r="1" fill="#fff"/><circle cx="105.56" cy="111.81" r="1" fill="#fff"/><circle cx="110.55" cy="111.81" r="1" fill="#fff"/><circle cx="95.36" cy="97.89" r="1" fill="#fff"/><circle cx="90.38" cy="97.89" r="1" fill="#fff"/><circle cx="100.35" cy="97.89" r="1" fill="#fff"/><circle cx="105.33" cy="97.89" r="1" fill="#fff"/><circle cx="110.32" cy="97.89" r="1" fill="#fff"/><circle cx="119.96" cy="83.96" r="1" fill="#fff"/><circle cx="114.98" cy="83.96" r="1" fill="#fff"/><circle cx="124.95" cy="83.96" r="1" fill="#fff"/><circle cx="129.93" cy="83.96" r="1" fill="#fff"/><circle cx="134.92" cy="83.96" r="1" fill="#fff"/><circle cx="119.93" cy="90.93" r="1" fill="#fff"/><circle cx="114.95" cy="90.93" r="1" fill="#fff"/><circle cx="124.91" cy="90.93" r="1" fill="#fff"/><circle cx="129.9" cy="90.93" r="1" fill="#fff"/><circle cx="134.88" cy="90.93" r="1" fill="#fff"/><circle cx="97.83" cy="87.44" r="1" fill="#fff"/><circle cx="92.84" cy="87.44" r="1" fill="#fff"/><circle cx="102.81" cy="87.44" r="1" fill="#fff"/><circle cx="107.79" cy="87.44" r="1" fill="#fff"/><circle cx="112.78" cy="87.44" r="1" fill="#fff"/><circle cx="95.63" cy="83.96" r="1" fill="#fff"/><circle cx="90.65" cy="83.96" r="1" fill="#fff"/><circle cx="100.61" cy="83.96" r="1" fill="#fff"/><circle cx="105.6" cy="83.96" r="1" fill="#fff"/><circle cx="110.58" cy="83.96" r="1" fill="#fff"/><circle cx="95.6" cy="90.92" r="1" fill="#fff"/><circle cx="90.61" cy="90.92" r="1" fill="#fff"/><circle cx="100.58" cy="90.92" r="1" fill="#fff"/><circle cx="105.56" cy="90.92" r="1" fill="#fff"/><circle cx="110.55" cy="90.92" r="1" fill="#fff"/><circle cx="122.16" cy="122.29" r="1" fill="#fff"/><circle cx="117.18" cy="122.29" r="1" fill="#fff"/><circle cx="127.14" cy="122.29" r="1" fill="#fff"/><circle cx="132.13" cy="122.29" r="1" fill="#fff"/><circle cx="137.11" cy="122.29" r="1" fill="#fff"/><circle cx="122.16" cy="115.32" r="1" fill="#fff"/><circle cx="117.18" cy="115.32" r="1" fill="#fff"/><circle cx="127.14" cy="115.32" r="1" fill="#fff"/><circle cx="132.13" cy="115.32" r="1" fill="#fff"/><circle cx="137.11" cy="115.32" r="1" fill="#fff"/><circle cx="119.96" cy="125.78" r="1" fill="#fff"/><circle cx="114.98" cy="125.78" r="1" fill="#fff"/><circle cx="124.95" cy="125.78" r="1" fill="#fff"/><circle cx="129.93" cy="125.78" r="1" fill="#fff"/><circle cx="134.92" cy="125.78" r="1" fill="#fff"/><circle cx="119.7" cy="118.81" r="1" fill="#fff"/><circle cx="114.71" cy="118.81" r="1" fill="#fff"/><circle cx="124.68" cy="118.81" r="1" fill="#fff"/><circle cx="129.67" cy="118.81" r="1" fill="#fff"/><circle cx="134.65" cy="118.81" r="1" fill="#fff"/><circle cx="97.83" cy="122.25" r="1" fill="#fff"/><circle cx="92.84" cy="122.25" r="1" fill="#fff"/><circle cx="102.81" cy="122.25" r="1" fill="#fff"/><circle cx="107.79" cy="122.25" r="1" fill="#fff"/><circle cx="112.78" cy="122.25" r="1" fill="#fff"/><circle cx="97.83" cy="115.29" r="1" fill="#fff"/><circle cx="92.84" cy="115.29" r="1" fill="#fff"/><circle cx="102.81" cy="115.29" r="1" fill="#fff"/><circle cx="107.79" cy="115.29" r="1" fill="#fff"/><circle cx="112.78" cy="115.29" r="1" fill="#fff"/><circle cx="97.83" cy="129.21" r="1" fill="#fff"/><circle cx="92.84" cy="129.21" r="1" fill="#fff"/><circle cx="102.81" cy="129.21" r="1" fill="#fff"/><circle cx="107.79" cy="129.21" r="1" fill="#fff"/><circle cx="112.78" cy="129.21" r="1" fill="#fff"/><circle cx="95.63" cy="125.73" r="1" fill="#fff"/><circle cx="90.65" cy="125.73" r="1" fill="#fff"/><circle cx="100.61" cy="125.73" r="1" fill="#fff"/><circle cx="105.6" cy="125.73" r="1" fill="#fff"/><circle cx="110.58" cy="125.73" r="1" fill="#fff"/><circle cx="95.36" cy="118.77" r="1" fill="#fff"/><circle cx="90.38" cy="118.77" r="1" fill="#fff"/><circle cx="100.35" cy="118.77" r="1" fill="#fff"/><circle cx="105.33" cy="118.77" r="1" fill="#fff"/><circle cx="110.32" cy="118.77" r="1" fill="#fff"/></g></g></g><path d="M127.55,118.9l-54.48-.1a2.94,2.94,0,0,1-2.63-1.41,3.16,3.16,0,0,1,.1-3.17v0L95.48,74l-.66-10.82.42-.25a10.37,10.37,0,0,1,5-1.18,14,14,0,0,1,5.14.92l.51.21-.39,11.33,24.89,40.43a2.74,2.74,0,0,1,.09,2.79A3.31,3.31,0,0,1,127.55,118.9ZM71.93,115a1.58,1.58,0,0,0-.1,1.56,1.35,1.35,0,0,0,1.24.61l54.49.1a1.75,1.75,0,0,0,1.55-.68,1.19,1.19,0,0,0-.09-1.16L103.9,74.64,104.26,64a13.51,13.51,0,0,0-4-.6,9.58,9.58,0,0,0-3.77.74l.63,10.31Z" fill="#ccc"/><path d="M16.29,125.67a8.45,8.45,0,0,1-8.09-6.09l-6-21.85a8.44,8.44,0,0,1,1.94-8,9.09,9.09,0,0,1,.74-.7l8.05-6.83-.06-.77-.27.06-1.08-.7c-.78-.52-1.9-1.75-2.78-4.69a8.54,8.54,0,0,1,.34-5.72l.41-.92.89-.5A27.56,27.56,0,0,1,22.68,66a29.1,29.1,0,0,1,12.75,3.12l1,.58.38,1.13a9.6,9.6,0,0,1,.23,4.74c-.74,3.6-2.35,4.83-3.25,5.25l-.59.27-.07,1,7.61,6.93a9.76,9.76,0,0,1,.72.72,8.46,8.46,0,0,1,1.66,8.06l-6.66,21.91a8.4,8.4,0,0,1-8,5.9Zm3-40.82L8.85,93.7l-.22.19a2.29,2.29,0,0,0-.53,2.18l6,21.85a2.27,2.27,0,0,0,2.18,1.61H28.48A2.27,2.27,0,0,0,30.65,118L37.31,96a2.28,2.28,0,0,0-.44-2.21c-.06-.07-.14-.14-.21-.21l-9.81-8.93L27.57,74l3.44.64c0-.09,0-.18.07-.28a2.3,2.3,0,0,0,.05-.45,23.07,23.07,0,0,0-8.45-1.75,21.76,21.76,0,0,0-8.14,1.6,1.85,1.85,0,0,0,.08.56l.12.4,3.73-.8Z" fill="#fff"/><path d="M30,83.42l.39-5.76,2.14.4s1-.46,1.54-3.07A6.56,6.56,0,0,0,34,71.84,26,26,0,0,0,22.68,69.1a24.31,24.31,0,0,0-10.82,2.53,5.59,5.59,0,0,0-.18,3.57c.73,2.49,1.52,3,1.52,3l2.47-.53.42,5.85L6.86,91.35c-.17.15-.34.29-.49.45a5.34,5.34,0,0,0-1.22,5.11l6,21.83a5.35,5.35,0,0,0,5.14,3.86H28.48a5.34,5.34,0,0,0,5.09-3.72l6.68-21.95a5.37,5.37,0,0,0-1.06-5.12,5.13,5.13,0,0,0-.47-.46Z" fill="#fff"/><path d="M28.48,124.21H16.29a7,7,0,0,1-6.68-5l-6-21.84a7,7,0,0,1,1.6-6.63,6.4,6.4,0,0,1,.62-.58l8.61-7.31-.23-3.19-1.32.28-.57-.37c-.38-.25-1.36-1.13-2.18-3.88A7.17,7.17,0,0,1,10.4,71l.22-.49.46-.26a25.8,25.8,0,0,1,11.6-2.73,27.38,27.38,0,0,1,12,2.94l.55.3.2.6a8,8,0,0,1,.19,4c-.63,3.07-1.92,4-2.44,4.21l-.46.22-.87-.16-.22,3.17,8.14,7.41a6.76,6.76,0,0,1,.59.6,7,7,0,0,1,1.38,6.66l-6.67,21.93A6.93,6.93,0,0,1,28.48,124.21ZM17.14,75.71l.62,8.5L7.9,92.58l-.35.32a3.76,3.76,0,0,0-.85,3.57l6,21.84A3.76,3.76,0,0,0,16.29,121H28.48a3.71,3.71,0,0,0,3.56-2.6l6.67-21.93A3.76,3.76,0,0,0,38,92.87a3.42,3.42,0,0,0-.33-.33l-9.28-8.45.56-8.34,3,.57a6,6,0,0,0,.55-1.66,5.06,5.06,0,0,0,0-1.72,24.84,24.84,0,0,0-9.87-2.23,23.27,23.27,0,0,0-9.49,2.05,3.91,3.91,0,0,0,0,2,8.75,8.75,0,0,0,.64,1.67Z" fill="#333"/><path d="M35.69,94.79a1.14,1.14,0,0,0-.19-.19l-1.62-1.46a11.71,11.71,0,0,1-2.38,4,3.85,3.85,0,0,0-7,2.17,4.17,4.17,0,0,0,.06.71A12.32,12.32,0,0,1,22,99.64c-5.75-1.61-9.46.12-11,1.86l4.14,15.18a2.84,2.84,0,0,0,2.32,1.82H27.81a2.41,2.41,0,0,0,2-1.76l6.32-20A2.09,2.09,0,0,0,35.69,94.79Z" fill="#86a5d9"/><circle cx="20.27" cy="92.51" r="2.36" fill="#86a5d9"/><path d="M17.71,116.06a.74.74,0,0,1-.71-.54L12.13,98a.73.73,0,1,1,1.41-.39l4.87,17.54a.73.73,0,0,1-.51.9A.63.63,0,0,1,17.71,116.06Z" fill="#fff"/><g opacity="0.5"><g clip-path="url(#dcc47357-7da8-45ea-876f-b97c420a45e9)"><g clip-path="url(#839039a0-1495-45a5-a772-e0936c2493a9)"><circle cx="44.11" cy="101.37" r="1" fill="#fff"/><circle cx="44.11" cy="94.41" r="1" fill="#fff"/><circle cx="44.11" cy="108.33" r="1" fill="#fff"/><circle cx="46.89" cy="104.85" r="1" fill="#fff"/><circle cx="41.91" cy="104.85" r="1" fill="#fff"/><circle cx="46.86" cy="111.81" r="1" fill="#fff"/><circle cx="41.88" cy="111.81" r="1" fill="#fff"/><circle cx="46.63" cy="97.89" r="1" fill="#fff"/><circle cx="41.64" cy="97.89" r="1" fill="#fff"/><circle cx="44.11" cy="87.44" r="1" fill="#fff"/><circle cx="46.89" cy="83.96" r="1" fill="#fff"/><circle cx="41.91" cy="83.96" r="1" fill="#fff"/><circle cx="46.86" cy="90.92" r="1" fill="#fff"/><circle cx="41.88" cy="90.92" r="1" fill="#fff"/><circle cx="44.11" cy="122.25" r="1" fill="#fff"/><circle cx="44.11" cy="115.29" r="1" fill="#fff"/><circle cx="44.11" cy="129.21" r="1" fill="#fff"/><circle cx="46.89" cy="125.73" r="1" fill="#fff"/><circle cx="41.91" cy="125.73" r="1" fill="#fff"/><circle cx="46.63" cy="118.77" r="1" fill="#fff"/><circle cx="41.64" cy="118.77" r="1" fill="#fff"/><circle cx="24.69" cy="101.39" r="1" fill="#fff"/><circle cx="19.7" cy="101.39" r="1" fill="#fff"/><circle cx="29.67" cy="101.39" r="1" fill="#fff"/><circle cx="34.65" cy="101.39" r="1" fill="#fff"/><circle cx="39.64" cy="101.39" r="1" fill="#fff"/><circle cx="24.69" cy="94.42" r="1" fill="#fff"/><circle cx="19.7" cy="94.42" r="1" fill="#fff"/><circle cx="29.67" cy="94.42" r="1" fill="#fff"/><circle cx="34.65" cy="94.42" r="1" fill="#fff"/><circle cx="39.64" cy="94.42" r="1" fill="#fff"/><circle cx="24.69" cy="87.45" r="1" fill="#fff"/><circle cx="19.7" cy="87.45" r="1" fill="#fff"/><circle cx="29.67" cy="87.45" r="1" fill="#fff"/><circle cx="34.65" cy="87.45" r="1" fill="#fff"/><circle cx="39.64" cy="87.45" r="1" fill="#fff"/><circle cx="24.69" cy="108.36" r="1" fill="#fff"/><circle cx="19.7" cy="108.36" r="1" fill="#fff"/><circle cx="29.67" cy="108.36" r="1" fill="#fff"/><circle cx="34.65" cy="108.36" r="1" fill="#fff"/><circle cx="39.64" cy="108.36" r="1" fill="#fff"/><circle cx="24.69" cy="129.26" r="1" fill="#fff"/><circle cx="19.7" cy="129.26" r="1" fill="#fff"/><circle cx="29.67" cy="129.26" r="1" fill="#fff"/><circle cx="34.65" cy="129.26" r="1" fill="#fff"/><circle cx="39.64" cy="129.26" r="1" fill="#fff"/><circle cx="22.49" cy="104.87" r="1" fill="#fff"/><circle cx="17.51" cy="104.87" r="1" fill="#fff"/><circle cx="27.47" cy="104.87" r="1" fill="#fff"/><circle cx="32.46" cy="104.87" r="1" fill="#fff"/><circle cx="37.44" cy="104.87" r="1" fill="#fff"/><circle cx="22.46" cy="111.84" r="1" fill="#fff"/><circle cx="17.47" cy="111.84" r="1" fill="#fff"/><circle cx="27.44" cy="111.84" r="1" fill="#fff"/><circle cx="32.43" cy="111.84" r="1" fill="#fff"/><circle cx="37.41" cy="111.84" r="1" fill="#fff"/><circle cx="22.22" cy="97.9" r="1" fill="#fff"/><circle cx="17.24" cy="97.9" r="1" fill="#fff"/><circle cx="27.21" cy="97.9" r="1" fill="#fff"/><circle cx="32.19" cy="97.9" r="1" fill="#fff"/><circle cx="37.18" cy="97.9" r="1" fill="#fff"/><circle cx="0.35" cy="101.37" r="1" fill="#fff"/><circle cx="5.34" cy="101.37" r="1" fill="#fff"/><circle cx="10.32" cy="101.37" r="1" fill="#fff"/><circle cx="15.3" cy="101.37" r="1" fill="#fff"/><circle cx="0.35" cy="94.41" r="1" fill="#fff"/><circle cx="5.34" cy="94.41" r="1" fill="#fff"/><circle cx="10.32" cy="94.41" r="1" fill="#fff"/><circle cx="15.3" cy="94.41" r="1" fill="#fff"/><circle cx="0.35" cy="108.33" r="1" fill="#fff"/><circle cx="5.34" cy="108.33" r="1" fill="#fff"/><circle cx="10.32" cy="108.33" r="1" fill="#fff"/><circle cx="15.3" cy="108.33" r="1" fill="#fff"/><circle cx="3.14" cy="104.85" r="1" fill="#fff"/><circle cx="8.12" cy="104.85" r="1" fill="#fff"/><circle cx="13.11" cy="104.85" r="1" fill="#fff"/><circle cx="3.11" cy="111.81" r="1" fill="#fff"/><circle cx="8.09" cy="111.81" r="1" fill="#fff"/><circle cx="13.08" cy="111.81" r="1" fill="#fff"/><circle cx="2.87" cy="97.89" r="1" fill="#fff"/><circle cx="7.86" cy="97.89" r="1" fill="#fff"/><circle cx="12.84" cy="97.89" r="1" fill="#fff"/><circle cx="22.49" cy="83.96" r="1" fill="#fff"/><circle cx="17.51" cy="83.96" r="1" fill="#fff"/><circle cx="27.47" cy="83.96" r="1" fill="#fff"/><circle cx="32.46" cy="83.96" r="1" fill="#fff"/><circle cx="37.44" cy="83.96" r="1" fill="#fff"/><circle cx="22.46" cy="90.93" r="1" fill="#fff"/><circle cx="17.47" cy="90.93" r="1" fill="#fff"/><circle cx="27.44" cy="90.93" r="1" fill="#fff"/><circle cx="32.43" cy="90.93" r="1" fill="#fff"/><circle cx="37.41" cy="90.93" r="1" fill="#fff"/><circle cx="0.35" cy="87.44" r="1" fill="#fff"/><circle cx="5.34" cy="87.44" r="1" fill="#fff"/><circle cx="10.32" cy="87.44" r="1" fill="#fff"/><circle cx="15.3" cy="87.44" r="1" fill="#fff"/><circle cx="3.14" cy="83.96" r="1" fill="#fff"/><circle cx="8.12" cy="83.96" r="1" fill="#fff"/><circle cx="13.11" cy="83.96" r="1" fill="#fff"/><circle cx="3.11" cy="90.92" r="1" fill="#fff"/><circle cx="8.09" cy="90.92" r="1" fill="#fff"/><circle cx="13.08" cy="90.92" r="1" fill="#fff"/><circle cx="24.69" cy="122.29" r="1" fill="#fff"/><circle cx="19.7" cy="122.29" r="1" fill="#fff"/><circle cx="29.67" cy="122.29" r="1" fill="#fff"/><circle cx="34.65" cy="122.29" r="1" fill="#fff"/><circle cx="39.64" cy="122.29" r="1" fill="#fff"/><circle cx="24.69" cy="115.32" r="1" fill="#fff"/><circle cx="19.7" cy="115.32" r="1" fill="#fff"/><circle cx="29.67" cy="115.32" r="1" fill="#fff"/><circle cx="34.65" cy="115.32" r="1" fill="#fff"/><circle cx="39.64" cy="115.32" r="1" fill="#fff"/><circle cx="22.49" cy="125.78" r="1" fill="#fff"/><circle cx="17.51" cy="125.78" r="1" fill="#fff"/><circle cx="27.47" cy="125.78" r="1" fill="#fff"/><circle cx="32.46" cy="125.78" r="1" fill="#fff"/><circle cx="37.44" cy="125.78" r="1" fill="#fff"/><circle cx="22.22" cy="118.81" r="1" fill="#fff"/><circle cx="17.24" cy="118.81" r="1" fill="#fff"/><circle cx="27.21" cy="118.81" r="1" fill="#fff"/><circle cx="32.19" cy="118.81" r="1" fill="#fff"/><circle cx="37.18" cy="118.81" r="1" fill="#fff"/><circle cx="0.35" cy="122.25" r="1" fill="#fff"/><circle cx="5.34" cy="122.25" r="1" fill="#fff"/><circle cx="10.32" cy="122.25" r="1" fill="#fff"/><circle cx="15.3" cy="122.25" r="1" fill="#fff"/><circle cx="0.35" cy="115.29" r="1" fill="#fff"/><circle cx="5.34" cy="115.29" r="1" fill="#fff"/><circle cx="10.32" cy="115.29" r="1" fill="#fff"/><circle cx="15.3" cy="115.29" r="1" fill="#fff"/><circle cx="0.35" cy="129.21" r="1" fill="#fff"/><circle cx="5.34" cy="129.21" r="1" fill="#fff"/><circle cx="10.32" cy="129.21" r="1" fill="#fff"/><circle cx="15.3" cy="129.21" r="1" fill="#fff"/><circle cx="3.14" cy="125.73" r="1" fill="#fff"/><circle cx="8.12" cy="125.73" r="1" fill="#fff"/><circle cx="13.11" cy="125.73" r="1" fill="#fff"/><circle cx="2.87" cy="118.77" r="1" fill="#fff"/><circle cx="7.86" cy="118.77" r="1" fill="#fff"/><circle cx="12.84" cy="118.77" r="1" fill="#fff"/></g></g></g><path d="M27.7,119.14H17.33a3.62,3.62,0,0,1-3.09-2.39l-4.15-15.2L8.81,96.89a2.91,2.91,0,0,1,.66-2.75,3.08,3.08,0,0,1,.27-.25l9.9-9-.41-9.65.65-.15a14.21,14.21,0,0,1,3.47-.26,19,19,0,0,1,3.07.33l.65.15-.38,9.85,7.64,7.27,1.6,1.46a3.24,3.24,0,0,1,.26.25h0a2.89,2.89,0,0,1,.58,2.76l-6.32,20A3.18,3.18,0,0,1,27.7,119.14ZM20.89,76.51l.39,9L10.81,95.1l-.17.14a1.29,1.29,0,0,0-.28,1.21l1.29,4.67,4.14,15.19a2.05,2.05,0,0,0,1.54,1.22H27.7c.49,0,1-.62,1.21-1.2l6.32-20A1.26,1.26,0,0,0,35,95.16l-.11-.11-1.64-1.48-8.18-7.79.36-9.2c-.47-.06-1.19-.14-2.12-.18A13.35,13.35,0,0,0,20.89,76.51Z" fill="#ccc"/></svg>