<svg id="f30bac2c-a56d-4873-ae23-8da9b983fc31" data-name="Layer 1" xmlns="http://www.w3.org/2000/svg" xmlns:xlink="http://www.w3.org/1999/xlink" viewBox="0 0 367.31 554.38"><defs><clipPath id="28bc0854-76bc-488f-abda-b776bf665903"><path d="M173.7,186.64l-.33,59.07s55.31,2.7,55.31-39.51c0,0,4.32-24-7.49-41.44C196.28,182.63,173.7,186.64,173.7,186.64Z" fill="none"/></clipPath><clipPath id="26b51c8d-8272-4f06-ba9f-6df2e7003dfd"><rect x="152.1" y="77.9" width="98.18" height="98.18" fill="none"/></clipPath><clipPath id="abe9ea05-1d03-4bac-8df0-6d833fd3e141"><rect x="152.1" y="176.09" width="98.18" height="98.18" fill="none"/></clipPath><clipPath id="7efc491e-03d9-451c-864b-6830f58a68f7"><polygon points="266.64 175.35 266.64 247.51 318.76 247.51 276.3 175.59 266.64 175.35" fill="none"/></clipPath><clipPath id="542bd08b-21cf-47e5-852a-95b720f26f44"><rect x="250.28" y="77.9" width="98.18" height="98.18" fill="none"/></clipPath><clipPath id="ed798201-5dd2-4ed7-9870-c5a6e6238438"><rect x="250.28" y="176.09" width="98.18" height="98.18" fill="none"/></clipPath><clipPath id="6dfd1bb7-c4b2-48de-905d-ee72c70c4c17"><polygon points="104.23 192.65 104.17 249.29 114.42 248.99 128.66 203.58 122.64 196.7 104.23 192.65" fill="none"/></clipPath><clipPath id="862fea40-d605-4306-a79b-bc386e0a913a"><rect x="53.92" y="176.09" width="98.18" height="98.18" fill="none"/></clipPath><pattern id="58f8725c-aa37-4440-a0e1-5f4aa3902524" data-name="brown" width="100" height="100" patternTransform="translate(-75.78 -78.94) scale(0.98)" patternUnits="userSpaceOnUse" viewBox="0 0 100 100"><rect width="100" height="100" fill="none"/><circle cx="93.26" cy="40.23" r="2.05" fill="#603813"/><circle cx="93.26" cy="25.95" r="2.05" fill="#603813"/><circle cx="93.26" cy="54.51" r="2.05" fill="#603813"/><circle cx="98.98" cy="47.37" r="2.05" fill="#603813"/><circle cx="88.75" cy="47.37" r="2.05" fill="#603813"/><circle cx="98.91" cy="61.65" r="2.05" fill="#603813"/><circle cx="88.68" cy="61.65" r="2.05" fill="#603813"/><circle cx="98.43" cy="33.09" r="2.05" fill="#603813"/><circle cx="88.2" cy="33.09" r="2.05" fill="#603813"/><circle cx="93.26" cy="11.66" r="2.05" fill="#603813"/><circle cx="98.98" cy="4.52" r="2.05" fill="#603813"/><circle cx="88.75" cy="4.52" r="2.05" fill="#603813"/><circle cx="98.91" cy="18.8" r="2.05" fill="#603813"/><circle cx="88.68" cy="18.8" r="2.05" fill="#603813"/><circle cx="93.26" cy="83.08" r="2.05" fill="#603813"/><circle cx="93.26" cy="68.79" r="2.05" fill="#603813"/><circle cx="93.26" cy="97.36" r="2.05" fill="#603813"/><circle cx="98.98" cy="90.22" r="2.05" fill="#603813"/><circle cx="88.75" cy="90.22" r="2.05" fill="#603813"/><circle cx="98.43" cy="75.94" r="2.05" fill="#603813"/><circle cx="88.2" cy="75.94" r="2.05" fill="#603813"/><circle cx="53.41" cy="40.27" r="2.05" fill="#603813"/><circle cx="43.18" cy="40.27" r="2.05" fill="#603813"/><circle cx="63.64" cy="40.27" r="2.05" fill="#603813"/><circle cx="73.86" cy="40.27" r="2.05" fill="#603813"/><circle cx="84.09" cy="40.27" r="2.05" fill="#603813"/><circle cx="53.41" cy="25.97" r="2.05" fill="#603813"/><circle cx="43.18" cy="25.97" r="2.05" fill="#603813"/><circle cx="63.64" cy="25.97" r="2.05" fill="#603813"/><circle cx="73.86" cy="25.97" r="2.05" fill="#603813"/><circle cx="84.09" cy="25.97" r="2.05" fill="#603813"/><circle cx="53.41" cy="11.67" r="2.05" fill="#603813"/><circle cx="43.18" cy="11.67" r="2.05" fill="#603813"/><circle cx="63.64" cy="11.67" r="2.05" fill="#603813"/><circle cx="73.86" cy="11.67" r="2.05" fill="#603813"/><circle cx="84.09" cy="11.67" r="2.05" fill="#603813"/><circle cx="53.41" cy="54.57" r="2.05" fill="#603813"/><circle cx="43.18" cy="54.57" r="2.05" fill="#603813"/><circle cx="63.64" cy="54.57" r="2.05" fill="#603813"/><circle cx="73.86" cy="54.57" r="2.05" fill="#603813"/><circle cx="84.09" cy="54.57" r="2.05" fill="#603813"/><circle cx="53.41" cy="97.47" r="2.05" fill="#603813"/><circle cx="43.18" cy="97.47" r="2.05" fill="#603813"/><circle cx="63.64" cy="97.47" r="2.05" fill="#603813"/><circle cx="73.86" cy="97.47" r="2.05" fill="#603813"/><circle cx="84.09" cy="97.47" r="2.05" fill="#603813"/><circle cx="48.9" cy="47.42" r="2.05" fill="#603813"/><circle cx="38.68" cy="47.42" r="2.05" fill="#603813"/><circle cx="59.13" cy="47.42" r="2.05" fill="#603813"/><circle cx="69.36" cy="47.42" r="2.05" fill="#603813"/><circle cx="79.58" cy="47.42" r="2.05" fill="#603813"/><circle cx="48.84" cy="61.72" r="2.05" fill="#603813"/><circle cx="38.61" cy="61.72" r="2.05" fill="#603813"/><circle cx="59.06" cy="61.72" r="2.05" fill="#603813"/><circle cx="69.29" cy="61.72" r="2.05" fill="#603813"/><circle cx="79.51" cy="61.72" r="2.05" fill="#603813"/><circle cx="48.36" cy="33.12" r="2.05" fill="#603813"/><circle cx="38.13" cy="33.12" r="2.05" fill="#603813"/><circle cx="58.58" cy="33.12" r="2.05" fill="#603813"/><circle cx="68.81" cy="33.12" r="2.05" fill="#603813"/><circle cx="79.04" cy="33.12" r="2.05" fill="#603813"/><circle cx="3.48" cy="40.23" r="2.05" fill="#603813"/><circle cx="-6.74" cy="40.23" r="2.05" fill="#603813"/><circle cx="13.71" cy="40.23" r="2.05" fill="#603813"/><circle cx="23.93" cy="40.23" r="2.05" fill="#603813"/><circle cx="34.16" cy="40.23" r="2.05" fill="#603813"/><circle cx="3.48" cy="25.95" r="2.05" fill="#603813"/><circle cx="-6.74" cy="25.95" r="2.05" fill="#603813"/><circle cx="13.71" cy="25.95" r="2.05" fill="#603813"/><circle cx="23.93" cy="25.95" r="2.05" fill="#603813"/><circle cx="34.16" cy="25.95" r="2.05" fill="#603813"/><circle cx="3.48" cy="54.51" r="2.05" fill="#603813"/><circle cx="-6.74" cy="54.51" r="2.05" fill="#603813"/><circle cx="13.71" cy="54.51" r="2.05" fill="#603813"/><circle cx="23.93" cy="54.51" r="2.05" fill="#603813"/><circle cx="34.16" cy="54.51" r="2.05" fill="#603813"/><circle cx="-1.02" cy="47.37" r="2.05" fill="#603813"/><circle cx="-11.25" cy="47.37" r="2.05" fill="#603813"/><circle cx="9.2" cy="47.37" r="2.05" fill="#603813"/><circle cx="19.43" cy="47.37" r="2.05" fill="#603813"/><circle cx="29.65" cy="47.37" r="2.05" fill="#603813"/><circle cx="-1.09" cy="61.65" r="2.05" fill="#603813"/><circle cx="-11.32" cy="61.65" r="2.05" fill="#603813"/><circle cx="9.13" cy="61.65" r="2.05" fill="#603813"/><circle cx="19.36" cy="61.65" r="2.05" fill="#603813"/><circle cx="29.59" cy="61.65" r="2.05" fill="#603813"/><circle cx="-1.57" cy="33.09" r="2.05" fill="#603813"/><circle cx="-11.8" cy="33.09" r="2.05" fill="#603813"/><circle cx="8.66" cy="33.09" r="2.05" fill="#603813"/><circle cx="18.88" cy="33.09" r="2.05" fill="#603813"/><circle cx="29.11" cy="33.09" r="2.05" fill="#603813"/><circle cx="48.9" cy="4.52" r="2.05" fill="#603813"/><circle cx="38.68" cy="4.52" r="2.05" fill="#603813"/><circle cx="59.13" cy="4.52" r="2.05" fill="#603813"/><circle cx="69.36" cy="4.52" r="2.05" fill="#603813"/><circle cx="79.58" cy="4.52" r="2.05" fill="#603813"/><circle cx="48.84" cy="18.82" r="2.05" fill="#603813"/><circle cx="38.61" cy="18.82" r="2.05" fill="#603813"/><circle cx="59.06" cy="18.82" r="2.05" fill="#603813"/><circle cx="69.29" cy="18.82" r="2.05" fill="#603813"/><circle cx="79.51" cy="18.82" r="2.05" fill="#603813"/><circle cx="3.48" cy="11.66" r="2.05" fill="#603813"/><circle cx="-6.74" cy="11.66" r="2.05" fill="#603813"/><circle cx="13.71" cy="11.66" r="2.05" fill="#603813"/><circle cx="23.93" cy="11.66" r="2.05" fill="#603813"/><circle cx="34.16" cy="11.66" r="2.05" fill="#603813"/><circle cx="-1.02" cy="4.52" r="2.05" fill="#603813"/><circle cx="-11.25" cy="4.52" r="2.05" fill="#603813"/><circle cx="9.2" cy="4.52" r="2.05" fill="#603813"/><circle cx="19.43" cy="4.52" r="2.05" fill="#603813"/><circle cx="29.65" cy="4.52" r="2.05" fill="#603813"/><circle cx="-1.09" cy="18.8" r="2.05" fill="#603813"/><circle cx="-11.32" cy="18.8" r="2.05" fill="#603813"/><circle cx="9.13" cy="18.8" r="2.05" fill="#603813"/><circle cx="19.36" cy="18.8" r="2.05" fill="#603813"/><circle cx="29.59" cy="18.8" r="2.05" fill="#603813"/><circle cx="53.41" cy="83.17" r="2.05" fill="#603813"/><circle cx="43.18" cy="83.17" r="2.05" fill="#603813"/><circle cx="63.64" cy="83.17" r="2.05" fill="#603813"/><circle cx="73.86" cy="83.17" r="2.05" fill="#603813"/><circle cx="84.09" cy="83.17" r="2.05" fill="#603813"/><circle cx="53.41" cy="68.87" r="2.05" fill="#603813"/><circle cx="43.18" cy="68.87" r="2.05" fill="#603813"/><circle cx="63.64" cy="68.87" r="2.05" fill="#603813"/><circle cx="73.86" cy="68.87" r="2.05" fill="#603813"/><circle cx="84.09" cy="68.87" r="2.05" fill="#603813"/><circle cx="48.9" cy="90.32" r="2.05" fill="#603813"/><circle cx="38.68" cy="90.32" r="2.05" fill="#603813"/><circle cx="59.13" cy="90.32" r="2.05" fill="#603813"/><circle cx="69.36" cy="90.32" r="2.05" fill="#603813"/><circle cx="79.58" cy="90.32" r="2.05" fill="#603813"/><circle cx="48.36" cy="76.02" r="2.05" fill="#603813"/><circle cx="38.13" cy="76.02" r="2.05" fill="#603813"/><circle cx="58.58" cy="76.02" r="2.05" fill="#603813"/><circle cx="68.81" cy="76.02" r="2.05" fill="#603813"/><circle cx="79.04" cy="76.02" r="2.05" fill="#603813"/><circle cx="3.48" cy="83.08" r="2.05" fill="#603813"/><circle cx="-6.74" cy="83.08" r="2.05" fill="#603813"/><circle cx="13.71" cy="83.08" r="2.05" fill="#603813"/><circle cx="23.93" cy="83.08" r="2.05" fill="#603813"/><circle cx="34.16" cy="83.08" r="2.05" fill="#603813"/><circle cx="3.48" cy="68.79" r="2.05" fill="#603813"/><circle cx="-6.74" cy="68.79" r="2.05" fill="#603813"/><circle cx="13.71" cy="68.79" r="2.05" fill="#603813"/><circle cx="23.93" cy="68.79" r="2.05" fill="#603813"/><circle cx="34.16" cy="68.79" r="2.05" fill="#603813"/><circle cx="3.48" cy="97.36" r="2.05" fill="#603813"/><circle cx="-6.74" cy="97.36" r="2.05" fill="#603813"/><circle cx="13.71" cy="97.36" r="2.05" fill="#603813"/><circle cx="23.93" cy="97.36" r="2.05" fill="#603813"/><circle cx="34.16" cy="97.36" r="2.05" fill="#603813"/><circle cx="-1.02" cy="90.22" r="2.05" fill="#603813"/><circle cx="-11.25" cy="90.22" r="2.05" fill="#603813"/><circle cx="9.2" cy="90.22" r="2.05" fill="#603813"/><circle cx="19.43" cy="90.22" r="2.05" fill="#603813"/><circle cx="29.65" cy="90.22" r="2.05" fill="#603813"/><circle cx="-1.57" cy="75.94" r="2.05" fill="#603813"/><circle cx="-11.8" cy="75.94" r="2.05" fill="#603813"/><circle cx="8.66" cy="75.94" r="2.05" fill="#603813"/><circle cx="18.88" cy="75.94" r="2.05" fill="#603813"/><circle cx="29.11" cy="75.94" r="2.05" fill="#603813"/></pattern></defs><title>jw-cartoon</title><path d="M201.4,277a32,32,0,0,1-15.49-4,83.36,83.36,0,0,1-48.4-6.87A30.56,30.56,0,0,1,114.11,277H89.53A30.83,30.83,0,0,1,60,254.77L47.89,210.59A30.68,30.68,0,0,1,55,181.43a31.69,31.69,0,0,1,2.65-2.51l6-5.12a43.58,43.58,0,0,1-2.51-6.55,31.28,31.28,0,0,1,1.32-21.1l2.71-6L70.92,137a60,60,0,0,1,11.44-4.64V78.67a49.31,49.31,0,0,1,83.31-35.75,59.37,59.37,0,0,1,114.72,21.5V77.75c7.75-5.88,14.47-8.66,20.77-8.66a20.15,20.15,0,0,1,4.8.57A18.36,18.36,0,0,1,319,81.51a18.14,18.14,0,0,1-4,18.71c-6.1,6.42-15.2,7.38-20.09,7.38h-.5c1.41.67,2.26,1.13,2.46,1.24l6.81,3.73,2.49,7.37a36.39,36.39,0,0,1,1,18.49c-1.58,7.66-4.51,12.82-7.58,16.29l18.49,27.42,7.61,83.62,7,6.95A32.17,32.17,0,0,1,316.64,277Zm.32-114.4c.15.46.29.94.42,1.42l.49-.45C202.33,163.22,202,162.9,201.72,162.58Z" fill="#f2f2f2"/><path d="M312.06,185.09l-21.29-31.75c3.24-2,7.69-6.52,9.7-16.3a29.56,29.56,0,0,0-.76-14.9l-1.62-4.83-4.46-2.45a70.84,70.84,0,0,0-10.91-4.55,28.82,28.82,0,0,1,6.45-9.16l.87-.79a34,34,0,0,0,4.93.37c3.78,0,10.78-.68,15.1-5.24a11.15,11.15,0,0,0,2.5-11.65,11.6,11.6,0,0,0-8.25-7.5,13.15,13.15,0,0,0-3.16-.38c-6.25,0-13.87,4.22-23.3,12.91a41.73,41.73,0,0,0-4.34,4.68V64.42A52.49,52.49,0,0,0,168.9,58.21,42.46,42.46,0,0,0,89.23,78.67v59a57.86,57.86,0,0,0-15,5.32l-3.77,2.1L68.72,149a24.14,24.14,0,0,0-1,16.31,28.9,28.9,0,0,0,4.86,9.94l-10.51,8.93a22.35,22.35,0,0,0-2.07,2,23.8,23.8,0,0,0-5.49,22.65l12.12,44.11a23.93,23.93,0,0,0,22.89,17.24h24.58a23.76,23.76,0,0,0,21.14-12.88,75.87,75.87,0,0,0,37.7,9.93,77,77,0,0,0,14.33-1.36,25.14,25.14,0,0,0,14.12,4.31H316.64a25.13,25.13,0,0,0,12.61-3.36l-10.07-2.46Z" fill="#fff"/><path d="M137.09,223.58c.49.33,14.44,15.83,32.11,15.83" fill="none"/><path d="M92.29,245.18a1.48,1.48,0,0,1-1.42-1.08l-9.81-35.34a1.47,1.47,0,1,1,2.83-.79l9.82,35.34a1.48,1.48,0,0,1-1,1.82A1.9,1.9,0,0,1,92.29,245.18Z" fill="#fff"/><path d="M221.19,164.76c-6.39,8.44-25.6,29.65-56.17,28a17.27,17.27,0,0,0,.18-2.4,16.85,16.85,0,0,0-33.63-1.49c-7.76.22-12.06,2-14.43,4a55.47,55.47,0,1,0,104.05-28.16Z" fill="#5f4bb6"/><circle cx="181.8" cy="170.45" r="7.13" fill="#5f4bb6"/><circle cx="160.42" cy="153.6" r="5.22" fill="#5f4bb6"/><g opacity="0.5"><g clip-path="url(#28bc0854-76bc-488f-abda-b776bf665903)"><g clip-path="url(#26b51c8d-8272-4f06-ba9f-6df2e7003dfd)"><circle cx="243.66" cy="117.4" r="2.01" fill="#fff"/><circle cx="243.66" cy="103.38" r="2.01" fill="#fff"/><circle cx="243.66" cy="131.43" r="2.01" fill="#fff"/><circle cx="249.27" cy="124.41" r="2.01" fill="#fff"/><circle cx="239.23" cy="124.41" r="2.01" fill="#fff"/><circle cx="249.21" cy="138.44" r="2.01" fill="#fff"/><circle cx="239.17" cy="138.44" r="2.01" fill="#fff"/><circle cx="248.74" cy="110.39" r="2.01" fill="#fff"/><circle cx="238.7" cy="110.39" r="2.01" fill="#fff"/><circle cx="243.66" cy="89.36" r="2.01" fill="#fff"/><circle cx="249.27" cy="82.34" r="2.01" fill="#fff"/><circle cx="239.23" cy="82.34" r="2.01" fill="#fff"/><circle cx="249.21" cy="96.37" r="2.01" fill="#fff"/><circle cx="239.17" cy="96.37" r="2.01" fill="#fff"/><circle cx="243.66" cy="159.47" r="2.01" fill="#fff"/><circle cx="243.66" cy="145.45" r="2.01" fill="#fff"/><circle cx="243.66" cy="173.49" r="2.01" fill="#fff"/><circle cx="249.27" cy="166.48" r="2.01" fill="#fff"/><circle cx="239.23" cy="166.48" r="2.01" fill="#fff"/><circle cx="248.74" cy="152.46" r="2.01" fill="#fff"/><circle cx="238.7" cy="152.46" r="2.01" fill="#fff"/><circle cx="204.53" cy="117.44" r="2.01" fill="#fff"/><circle cx="194.49" cy="117.44" r="2.01" fill="#fff"/><circle cx="214.57" cy="117.44" r="2.01" fill="#fff"/><circle cx="224.61" cy="117.44" r="2.01" fill="#fff"/><circle cx="234.65" cy="117.44" r="2.01" fill="#fff"/><circle cx="204.53" cy="103.4" r="2.01" fill="#fff"/><circle cx="194.49" cy="103.4" r="2.01" fill="#fff"/><circle cx="214.57" cy="103.4" r="2.01" fill="#fff"/><circle cx="224.61" cy="103.4" r="2.01" fill="#fff"/><circle cx="234.65" cy="103.4" r="2.01" fill="#fff"/><circle cx="204.53" cy="89.36" r="2.01" fill="#fff"/><circle cx="194.49" cy="89.36" r="2.01" fill="#fff"/><circle cx="214.57" cy="89.36" r="2.01" fill="#fff"/><circle cx="224.61" cy="89.36" r="2.01" fill="#fff"/><circle cx="234.65" cy="89.36" r="2.01" fill="#fff"/><circle cx="204.53" cy="131.48" r="2.01" fill="#fff"/><circle cx="194.49" cy="131.48" r="2.01" fill="#fff"/><circle cx="214.57" cy="131.48" r="2.01" fill="#fff"/><circle cx="224.61" cy="131.48" r="2.01" fill="#fff"/><circle cx="234.65" cy="131.48" r="2.01" fill="#fff"/><circle cx="204.53" cy="173.6" r="2.01" fill="#fff"/><circle cx="194.49" cy="173.6" r="2.01" fill="#fff"/><circle cx="214.57" cy="173.6" r="2.01" fill="#fff"/><circle cx="224.61" cy="173.6" r="2.01" fill="#fff"/><circle cx="234.65" cy="173.6" r="2.01" fill="#fff"/><circle cx="200.11" cy="124.46" r="2.01" fill="#fff"/><circle cx="190.07" cy="124.46" r="2.01" fill="#fff"/><circle cx="210.15" cy="124.46" r="2.01" fill="#fff"/><circle cx="220.19" cy="124.46" r="2.01" fill="#fff"/><circle cx="230.23" cy="124.46" r="2.01" fill="#fff"/><circle cx="200.04" cy="138.5" r="2.01" fill="#fff"/><circle cx="190" cy="138.5" r="2.01" fill="#fff"/><circle cx="210.08" cy="138.5" r="2.01" fill="#fff"/><circle cx="220.12" cy="138.5" r="2.01" fill="#fff"/><circle cx="230.16" cy="138.5" r="2.01" fill="#fff"/><circle cx="199.58" cy="110.42" r="2.01" fill="#fff"/><circle cx="189.54" cy="110.42" r="2.01" fill="#fff"/><circle cx="209.62" cy="110.42" r="2.01" fill="#fff"/><circle cx="219.66" cy="110.42" r="2.01" fill="#fff"/><circle cx="229.7" cy="110.42" r="2.01" fill="#fff"/><circle cx="155.51" cy="117.4" r="2.01" fill="#fff"/><circle cx="145.47" cy="117.4" r="2.01" fill="#fff"/><circle cx="165.55" cy="117.4" r="2.01" fill="#fff"/><circle cx="175.59" cy="117.4" r="2.01" fill="#fff"/><circle cx="185.63" cy="117.4" r="2.01" fill="#fff"/><circle cx="155.51" cy="103.38" r="2.01" fill="#fff"/><circle cx="145.47" cy="103.38" r="2.01" fill="#fff"/><circle cx="165.55" cy="103.38" r="2.01" fill="#fff"/><circle cx="175.59" cy="103.38" r="2.01" fill="#fff"/><circle cx="185.63" cy="103.38" r="2.01" fill="#fff"/><circle cx="155.51" cy="131.43" r="2.01" fill="#fff"/><circle cx="145.47" cy="131.43" r="2.01" fill="#fff"/><circle cx="165.55" cy="131.43" r="2.01" fill="#fff"/><circle cx="175.59" cy="131.43" r="2.01" fill="#fff"/><circle cx="185.63" cy="131.43" r="2.01" fill="#fff"/><circle cx="151.09" cy="124.41" r="2.01" fill="#fff"/><circle cx="141.05" cy="124.41" r="2.01" fill="#fff"/><circle cx="161.13" cy="124.41" r="2.01" fill="#fff"/><circle cx="171.17" cy="124.41" r="2.01" fill="#fff"/><circle cx="181.21" cy="124.41" r="2.01" fill="#fff"/><circle cx="151.02" cy="138.44" r="2.01" fill="#fff"/><circle cx="140.98" cy="138.44" r="2.01" fill="#fff"/><circle cx="161.06" cy="138.44" r="2.01" fill="#fff"/><circle cx="171.1" cy="138.44" r="2.01" fill="#fff"/><circle cx="181.14" cy="138.44" r="2.01" fill="#fff"/><circle cx="150.55" cy="110.39" r="2.01" fill="#fff"/><circle cx="140.51" cy="110.39" r="2.01" fill="#fff"/><circle cx="160.59" cy="110.39" r="2.01" fill="#fff"/><circle cx="170.63" cy="110.39" r="2.01" fill="#fff"/><circle cx="180.67" cy="110.39" r="2.01" fill="#fff"/><circle cx="200.11" cy="82.34" r="2.01" fill="#fff"/><circle cx="190.07" cy="82.34" r="2.01" fill="#fff"/><circle cx="210.15" cy="82.34" r="2.01" fill="#fff"/><circle cx="220.19" cy="82.34" r="2.01" fill="#fff"/><circle cx="230.23" cy="82.34" r="2.01" fill="#fff"/><circle cx="200.04" cy="96.38" r="2.01" fill="#fff"/><circle cx="190" cy="96.38" r="2.01" fill="#fff"/><circle cx="210.08" cy="96.38" r="2.01" fill="#fff"/><circle cx="220.12" cy="96.38" r="2.01" fill="#fff"/><circle cx="230.16" cy="96.38" r="2.01" fill="#fff"/><circle cx="155.51" cy="89.36" r="2.01" fill="#fff"/><circle cx="145.47" cy="89.36" r="2.01" fill="#fff"/><circle cx="165.55" cy="89.36" r="2.01" fill="#fff"/><circle cx="175.59" cy="89.36" r="2.01" fill="#fff"/><circle cx="185.63" cy="89.36" r="2.01" fill="#fff"/><circle cx="151.09" cy="82.34" r="2.01" fill="#fff"/><circle cx="141.05" cy="82.34" r="2.01" fill="#fff"/><circle cx="161.13" cy="82.34" r="2.01" fill="#fff"/><circle cx="171.17" cy="82.34" r="2.01" fill="#fff"/><circle cx="181.21" cy="82.34" r="2.01" fill="#fff"/><circle cx="151.02" cy="96.37" r="2.01" fill="#fff"/><circle cx="140.98" cy="96.37" r="2.01" fill="#fff"/><circle cx="161.06" cy="96.37" r="2.01" fill="#fff"/><circle cx="171.1" cy="96.37" r="2.01" fill="#fff"/><circle cx="181.14" cy="96.37" r="2.01" fill="#fff"/><circle cx="204.53" cy="159.56" r="2.01" fill="#fff"/><circle cx="194.49" cy="159.56" r="2.01" fill="#fff"/><circle cx="214.57" cy="159.56" r="2.01" fill="#fff"/><circle cx="224.61" cy="159.56" r="2.01" fill="#fff"/><circle cx="234.65" cy="159.56" r="2.01" fill="#fff"/><circle cx="204.53" cy="145.52" r="2.01" fill="#fff"/><circle cx="194.49" cy="145.52" r="2.01" fill="#fff"/><circle cx="214.57" cy="145.52" r="2.01" fill="#fff"/><circle cx="224.61" cy="145.52" r="2.01" fill="#fff"/><circle cx="234.65" cy="145.52" r="2.01" fill="#fff"/><circle cx="200.11" cy="166.58" r="2.01" fill="#fff"/><circle cx="190.07" cy="166.58" r="2.01" fill="#fff"/><circle cx="210.15" cy="166.58" r="2.01" fill="#fff"/><circle cx="220.19" cy="166.58" r="2.01" fill="#fff"/><circle cx="230.23" cy="166.58" r="2.01" fill="#fff"/><circle cx="199.58" cy="152.54" r="2.01" fill="#fff"/><circle cx="189.54" cy="152.54" r="2.01" fill="#fff"/><circle cx="209.62" cy="152.54" r="2.01" fill="#fff"/><circle cx="219.66" cy="152.54" r="2.01" fill="#fff"/><circle cx="229.7" cy="152.54" r="2.01" fill="#fff"/><circle cx="155.51" cy="159.47" r="2.01" fill="#fff"/><circle cx="145.47" cy="159.47" r="2.01" fill="#fff"/><circle cx="165.55" cy="159.47" r="2.01" fill="#fff"/><circle cx="175.59" cy="159.47" r="2.01" fill="#fff"/><circle cx="185.63" cy="159.47" r="2.01" fill="#fff"/><circle cx="155.51" cy="145.45" r="2.01" fill="#fff"/><circle cx="145.47" cy="145.45" r="2.01" fill="#fff"/><circle cx="165.55" cy="145.45" r="2.01" fill="#fff"/><circle cx="175.59" cy="145.45" r="2.01" fill="#fff"/><circle cx="185.63" cy="145.45" r="2.01" fill="#fff"/><circle cx="155.51" cy="173.49" r="2.01" fill="#fff"/><circle cx="145.47" cy="173.49" r="2.01" fill="#fff"/><circle cx="165.55" cy="173.49" r="2.01" fill="#fff"/><circle cx="175.59" cy="173.49" r="2.01" fill="#fff"/><circle cx="185.63" cy="173.49" r="2.01" fill="#fff"/><circle cx="151.09" cy="166.48" r="2.01" fill="#fff"/><circle cx="141.05" cy="166.48" r="2.01" fill="#fff"/><circle cx="161.13" cy="166.48" r="2.01" fill="#fff"/><circle cx="171.17" cy="166.48" r="2.01" fill="#fff"/><circle cx="181.21" cy="166.48" r="2.01" fill="#fff"/><circle cx="150.55" cy="152.46" r="2.01" fill="#fff"/><circle cx="140.51" cy="152.46" r="2.01" fill="#fff"/><circle cx="160.59" cy="152.46" r="2.01" fill="#fff"/><circle cx="170.63" cy="152.46" r="2.01" fill="#fff"/><circle cx="180.67" cy="152.46" r="2.01" fill="#fff"/></g><g clip-path="url(#abe9ea05-1d03-4bac-8df0-6d833fd3e141)"><circle cx="243.66" cy="215.58" r="2.01" fill="#fff"/><circle cx="243.66" cy="201.56" r="2.01" fill="#fff"/><circle cx="243.66" cy="229.61" r="2.01" fill="#fff"/><circle cx="249.27" cy="222.6" r="2.01" fill="#fff"/><circle cx="239.23" cy="222.6" r="2.01" fill="#fff"/><circle cx="249.21" cy="236.62" r="2.01" fill="#fff"/><circle cx="239.17" cy="236.62" r="2.01" fill="#fff"/><circle cx="248.74" cy="208.57" r="2.01" fill="#fff"/><circle cx="238.7" cy="208.57" r="2.01" fill="#fff"/><circle cx="243.66" cy="187.54" r="2.01" fill="#fff"/><circle cx="249.27" cy="180.53" r="2.01" fill="#fff"/><circle cx="239.23" cy="180.53" r="2.01" fill="#fff"/><circle cx="249.21" cy="194.55" r="2.01" fill="#fff"/><circle cx="239.17" cy="194.55" r="2.01" fill="#fff"/><circle cx="243.66" cy="257.65" r="2.01" fill="#fff"/><circle cx="243.66" cy="243.63" r="2.01" fill="#fff"/><circle cx="243.66" cy="271.68" r="2.01" fill="#fff"/><circle cx="249.27" cy="264.66" r="2.01" fill="#fff"/><circle cx="239.23" cy="264.66" r="2.01" fill="#fff"/><circle cx="248.74" cy="250.64" r="2.01" fill="#fff"/><circle cx="238.7" cy="250.64" r="2.01" fill="#fff"/><circle cx="204.53" cy="215.62" r="2.01" fill="#fff"/><circle cx="194.49" cy="215.62" r="2.01" fill="#fff"/><circle cx="214.57" cy="215.62" r="2.01" fill="#fff"/><circle cx="224.61" cy="215.62" r="2.01" fill="#fff"/><circle cx="234.65" cy="215.62" r="2.01" fill="#fff"/><circle cx="204.53" cy="201.58" r="2.01" fill="#fff"/><circle cx="194.49" cy="201.58" r="2.01" fill="#fff"/><circle cx="214.57" cy="201.58" r="2.01" fill="#fff"/><circle cx="224.61" cy="201.58" r="2.01" fill="#fff"/><circle cx="234.65" cy="201.58" r="2.01" fill="#fff"/><circle cx="204.53" cy="187.55" r="2.01" fill="#fff"/><circle cx="194.49" cy="187.55" r="2.01" fill="#fff"/><circle cx="214.57" cy="187.55" r="2.01" fill="#fff"/><circle cx="224.61" cy="187.55" r="2.01" fill="#fff"/><circle cx="234.65" cy="187.55" r="2.01" fill="#fff"/><circle cx="204.53" cy="229.66" r="2.01" fill="#fff"/><circle cx="194.49" cy="229.66" r="2.01" fill="#fff"/><circle cx="214.57" cy="229.66" r="2.01" fill="#fff"/><circle cx="224.61" cy="229.66" r="2.01" fill="#fff"/><circle cx="234.65" cy="229.66" r="2.01" fill="#fff"/><circle cx="204.53" cy="271.78" r="2.01" fill="#fff"/><circle cx="194.49" cy="271.78" r="2.01" fill="#fff"/><circle cx="214.57" cy="271.78" r="2.01" fill="#fff"/><circle cx="224.61" cy="271.78" r="2.01" fill="#fff"/><circle cx="234.65" cy="271.78" r="2.01" fill="#fff"/><circle cx="200.11" cy="222.64" r="2.01" fill="#fff"/><circle cx="190.07" cy="222.64" r="2.01" fill="#fff"/><circle cx="210.15" cy="222.64" r="2.01" fill="#fff"/><circle cx="220.19" cy="222.64" r="2.01" fill="#fff"/><circle cx="230.23" cy="222.64" r="2.01" fill="#fff"/><circle cx="200.04" cy="236.68" r="2.01" fill="#fff"/><circle cx="190" cy="236.68" r="2.01" fill="#fff"/><circle cx="210.08" cy="236.68" r="2.01" fill="#fff"/><circle cx="220.12" cy="236.68" r="2.01" fill="#fff"/><circle cx="230.16" cy="236.68" r="2.01" fill="#fff"/><circle cx="199.58" cy="208.6" r="2.01" fill="#fff"/><circle cx="189.54" cy="208.6" r="2.01" fill="#fff"/><circle cx="209.62" cy="208.6" r="2.01" fill="#fff"/><circle cx="219.66" cy="208.6" r="2.01" fill="#fff"/><circle cx="229.7" cy="208.6" r="2.01" fill="#fff"/><circle cx="155.51" cy="215.58" r="2.01" fill="#fff"/><circle cx="145.47" cy="215.58" r="2.01" fill="#fff"/><circle cx="165.55" cy="215.58" r="2.01" fill="#fff"/><circle cx="175.59" cy="215.58" r="2.01" fill="#fff"/><circle cx="185.63" cy="215.58" r="2.01" fill="#fff"/><circle cx="155.51" cy="201.56" r="2.01" fill="#fff"/><circle cx="145.47" cy="201.56" r="2.01" fill="#fff"/><circle cx="165.55" cy="201.56" r="2.01" fill="#fff"/><circle cx="175.59" cy="201.56" r="2.01" fill="#fff"/><circle cx="185.63" cy="201.56" r="2.01" fill="#fff"/><circle cx="155.51" cy="229.61" r="2.01" fill="#fff"/><circle cx="145.47" cy="229.61" r="2.01" fill="#fff"/><circle cx="165.55" cy="229.61" r="2.01" fill="#fff"/><circle cx="175.59" cy="229.61" r="2.01" fill="#fff"/><circle cx="185.63" cy="229.61" r="2.01" fill="#fff"/><circle cx="151.09" cy="222.6" r="2.01" fill="#fff"/><circle cx="141.05" cy="222.6" r="2.01" fill="#fff"/><circle cx="161.13" cy="222.6" r="2.01" fill="#fff"/><circle cx="171.17" cy="222.6" r="2.01" fill="#fff"/><circle cx="181.21" cy="222.6" r="2.01" fill="#fff"/><circle cx="151.02" cy="236.62" r="2.01" fill="#fff"/><circle cx="140.98" cy="236.62" r="2.01" fill="#fff"/><circle cx="161.06" cy="236.62" r="2.01" fill="#fff"/><circle cx="171.1" cy="236.62" r="2.01" fill="#fff"/><circle cx="181.14" cy="236.62" r="2.01" fill="#fff"/><circle cx="150.55" cy="208.57" r="2.01" fill="#fff"/><circle cx="140.51" cy="208.57" r="2.01" fill="#fff"/><circle cx="160.59" cy="208.57" r="2.01" fill="#fff"/><circle cx="170.63" cy="208.57" r="2.01" fill="#fff"/><circle cx="180.67" cy="208.57" r="2.01" fill="#fff"/><circle cx="200.11" cy="180.53" r="2.01" fill="#fff"/><circle cx="190.07" cy="180.53" r="2.01" fill="#fff"/><circle cx="210.15" cy="180.53" r="2.01" fill="#fff"/><circle cx="220.19" cy="180.53" r="2.01" fill="#fff"/><circle cx="230.23" cy="180.53" r="2.01" fill="#fff"/><circle cx="200.04" cy="194.56" r="2.01" fill="#fff"/><circle cx="190" cy="194.56" r="2.01" fill="#fff"/><circle cx="210.08" cy="194.56" r="2.01" fill="#fff"/><circle cx="220.12" cy="194.56" r="2.01" fill="#fff"/><circle cx="230.16" cy="194.56" r="2.01" fill="#fff"/><circle cx="155.51" cy="187.54" r="2.01" fill="#fff"/><circle cx="145.47" cy="187.54" r="2.01" fill="#fff"/><circle cx="165.55" cy="187.54" r="2.01" fill="#fff"/><circle cx="175.59" cy="187.54" r="2.01" fill="#fff"/><circle cx="185.63" cy="187.54" r="2.01" fill="#fff"/><circle cx="151.09" cy="180.53" r="2.01" fill="#fff"/><circle cx="141.05" cy="180.53" r="2.01" fill="#fff"/><circle cx="161.13" cy="180.53" r="2.01" fill="#fff"/><circle cx="171.17" cy="180.53" r="2.01" fill="#fff"/><circle cx="181.21" cy="180.53" r="2.01" fill="#fff"/><circle cx="151.02" cy="194.55" r="2.01" fill="#fff"/><circle cx="140.98" cy="194.55" r="2.01" fill="#fff"/><circle cx="161.06" cy="194.55" r="2.01" fill="#fff"/><circle cx="171.1" cy="194.55" r="2.01" fill="#fff"/><circle cx="181.14" cy="194.55" r="2.01" fill="#fff"/><circle cx="204.53" cy="257.74" r="2.01" fill="#fff"/><circle cx="194.49" cy="257.74" r="2.01" fill="#fff"/><circle cx="214.57" cy="257.74" r="2.01" fill="#fff"/><circle cx="224.61" cy="257.74" r="2.01" fill="#fff"/><circle cx="234.65" cy="257.74" r="2.01" fill="#fff"/><circle cx="204.53" cy="243.7" r="2.01" fill="#fff"/><circle cx="194.49" cy="243.7" r="2.01" fill="#fff"/><circle cx="214.57" cy="243.7" r="2.01" fill="#fff"/><circle cx="224.61" cy="243.7" r="2.01" fill="#fff"/><circle cx="234.65" cy="243.7" r="2.01" fill="#fff"/><circle cx="200.11" cy="264.76" r="2.01" fill="#fff"/><circle cx="190.07" cy="264.76" r="2.01" fill="#fff"/><circle cx="210.15" cy="264.76" r="2.01" fill="#fff"/><circle cx="220.19" cy="264.76" r="2.01" fill="#fff"/><circle cx="230.23" cy="264.76" r="2.01" fill="#fff"/><circle cx="199.58" cy="250.72" r="2.01" fill="#fff"/><circle cx="189.54" cy="250.72" r="2.01" fill="#fff"/><circle cx="209.62" cy="250.72" r="2.01" fill="#fff"/><circle cx="219.66" cy="250.72" r="2.01" fill="#fff"/><circle cx="229.7" cy="250.72" r="2.01" fill="#fff"/><circle cx="155.51" cy="257.65" r="2.01" fill="#fff"/><circle cx="145.47" cy="257.65" r="2.01" fill="#fff"/><circle cx="165.55" cy="257.65" r="2.01" fill="#fff"/><circle cx="175.59" cy="257.65" r="2.01" fill="#fff"/><circle cx="185.63" cy="257.65" r="2.01" fill="#fff"/><circle cx="155.51" cy="243.63" r="2.01" fill="#fff"/><circle cx="145.47" cy="243.63" r="2.01" fill="#fff"/><circle cx="165.55" cy="243.63" r="2.01" fill="#fff"/><circle cx="175.59" cy="243.63" r="2.01" fill="#fff"/><circle cx="185.63" cy="243.63" r="2.01" fill="#fff"/><circle cx="155.51" cy="271.68" r="2.01" fill="#fff"/><circle cx="145.47" cy="271.68" r="2.01" fill="#fff"/><circle cx="165.55" cy="271.68" r="2.01" fill="#fff"/><circle cx="175.59" cy="271.68" r="2.01" fill="#fff"/><circle cx="185.63" cy="271.68" r="2.01" fill="#fff"/><circle cx="151.09" cy="264.66" r="2.01" fill="#fff"/><circle cx="141.05" cy="264.66" r="2.01" fill="#fff"/><circle cx="161.13" cy="264.66" r="2.01" fill="#fff"/><circle cx="171.17" cy="264.66" r="2.01" fill="#fff"/><circle cx="181.21" cy="264.66" r="2.01" fill="#fff"/><circle cx="150.55" cy="250.64" r="2.01" fill="#fff"/><circle cx="140.51" cy="250.64" r="2.01" fill="#fff"/><circle cx="160.59" cy="250.64" r="2.01" fill="#fff"/><circle cx="170.63" cy="250.64" r="2.01" fill="#fff"/><circle cx="180.67" cy="250.64" r="2.01" fill="#fff"/></g></g></g><path d="M172.84,248.93a57.09,57.09,0,0,1-11-113.11l-2.22-26.66.78-.53c.35-.24,3.67-2.33,11.82-2.33a29.39,29.39,0,0,1,11.14,2.2l1,.45-1.53,26.66a57.1,57.1,0,0,1-10,113.32Zm-9.85-138,2.3,27.56-1.47.24a53.86,53.86,0,1,0,17.06-.16l-1.46-.22,1.56-27.3a27.25,27.25,0,0,0-8.79-1.52A24.64,24.64,0,0,0,163,110.94Z" fill="#ccc"/><path d="M172.84,261.6A69.78,69.78,0,0,1,149.66,126l-.85-8.76-4.17.89-1.13-.74c-.9-.6-3.22-2.71-5.25-9.53a17.9,17.9,0,0,1,.63-11.49l.49-1.08,1.07-.51a80.17,80.17,0,0,1,31.28-6.85c16.78,0,31.26,7.12,31.87,7.43l1.2.59.43,1.27a20.25,20.25,0,0,1,.44,9.81c-1.59,7.75-4.82,9.8-5.78,10.24l-.94.44-3.06-.58-.81,8.55a70.41,70.41,0,0,1,33.34,24,69.15,69.15,0,0,1,14.19,42.17A69.85,69.85,0,0,1,172.84,261.6ZM154.55,109.39l2.07,21.2-2.52.78a63.85,63.85,0,0,0-31.95,22.57,63.29,63.29,0,1,0,101.11-.36,63.75,63.75,0,0,0-32.56-22.47l-2.56-.76,2-20.89,7.37,1.39a14.76,14.76,0,0,0,1.86-5.11,14,14,0,0,0,0-5.18c-3.79-1.66-15.19-6.14-27.64-6.14a74.82,74.82,0,0,0-27.27,5.68,11.13,11.13,0,0,0,0,5.92,22.22,22.22,0,0,0,2.07,5.09Z"/><path d="M272.4,135.25l8.49,1.59a18,18,0,0,0,.63-2.37,10.16,10.16,0,0,0,.19-2.63,62,62,0,0,0-23.51-5.1,58.66,58.66,0,0,0-22.63,4.69,7.76,7.76,0,0,0,.22,3.08c.31,1,.61,1.87.88,2.54l9.13-2,1.76,24.14-51.43,84.09a5.8,5.8,0,0,0,0,5.86,5.87,5.87,0,0,0,5.15,3H316.54a5.94,5.94,0,0,0,5.13-9L270.8,159Z" fill="#fff"/><path d="M316.54,261.6H201.3a15.36,15.36,0,0,1-13.24-23.15l49.88-81.56-.75-10.31-4.05.86L232,146.7c-.9-.59-3.22-2.7-5.24-9.5a17.45,17.45,0,0,1,.64-11.46l.44-1,.93-.52a65.47,65.47,0,0,1,29.43-6.92,69.76,69.76,0,0,1,30.6,7.46l1.1.61.41,1.2a20.18,20.18,0,0,1,.45,9.78c-1.6,7.73-4.82,9.77-5.78,10.22L284,147l-3-.55-.69,10.17,28.8,47.76-.65-6.78-25.15-41.7.41-5.94.62.11,1.8-.83c1.62-.76,5.59-3.47,7.41-12.29a22.9,22.9,0,0,0-.54-11.32l-.77-2.29-2.12-1.16a72.8,72.8,0,0,0-32-7.83,68.48,68.48,0,0,0-30.86,7.3l-1.79,1-.84,1.86a20.26,20.26,0,0,0-.77,13.52c2.1,7.08,4.67,10,6.45,11.13l2.16,1.41,1.94-.41.44,6L185.52,237a18.32,18.32,0,0,0,15.78,27.6H316.54a18.35,18.35,0,0,0,9.18-2.43l-.32-3.31A15.26,15.26,0,0,1,316.54,261.6Z" fill="#fff"/><path d="M275.12,138.76l7.44,1.39a14.36,14.36,0,0,0,1.85-5.08,14.18,14.18,0,0,0,0-5.22,64.39,64.39,0,0,0-26.24-6A60.59,60.59,0,0,0,233,129.37a11,11,0,0,0,0,6,22.39,22.39,0,0,0,2.06,5.06l8.08-1.73,1.44,19.82-50.94,83.28a8.89,8.89,0,0,0,7.69,13.34H316.54a8.78,8.78,0,0,0,7.71-4.47c.12-.21.21-.42.31-.63l-.87-9.14L273.8,158.24Zm46.55,104.47a5.94,5.94,0,0,1-5.13,9H201.3a5.87,5.87,0,0,1-5.15-3,5.8,5.8,0,0,1,0-5.86l51.43-84.09-1.76-24.14-9.13,2c-.27-.67-.57-1.51-.88-2.54a7.76,7.76,0,0,1-.22-3.08,58.66,58.66,0,0,1,22.63-4.69,62,62,0,0,1,23.51,5.1,10.16,10.16,0,0,1-.19,2.63,18,18,0,0,1-.63,2.37l-8.49-1.59L270.8,159Z" fill="#fff"/><path d="M325,254.9l-.47-4.88c-.1.21-.19.42-.31.63a8.78,8.78,0,0,1-7.71,4.47H201.3a8.89,8.89,0,0,1-7.69-13.34l50.94-83.28-1.44-19.82L235,140.41a22.39,22.39,0,0,1-2.06-5.06,11,11,0,0,1,0-6,60.59,60.59,0,0,1,25.21-5.57,64.39,64.39,0,0,1,26.24,6,14.18,14.18,0,0,1,0,5.22,14.36,14.36,0,0,1-1.85,5.08l-7.44-1.39-1.32,19.48,49.89,82.64-.71-7.44-.72-7.45L280.4,156.64l.69-10.17,3,.55.94-.43c1-.45,4.18-2.49,5.78-10.22a20.18,20.18,0,0,0-.45-9.78l-.41-1.2-1.1-.61a69.76,69.76,0,0,0-30.6-7.46,65.47,65.47,0,0,0-29.43,6.92l-.93.52-.44,1a17.45,17.45,0,0,0-.64,11.46c2,6.8,4.34,8.91,5.24,9.5l1.14.74,4.05-.86.75,10.31-49.88,81.56A15.36,15.36,0,0,0,201.3,261.6H316.54a15.26,15.26,0,0,0,8.86-2.79Z"/><path d="M200,243.13l31.56-51.27c11.9,10.49,17.67,9.85,23.28,6.83a10.9,10.9,0,0,1-1.13-4.83,11,11,0,0,1,21.67-2.75,24.79,24.79,0,0,1,13.42,4.43l29,46.74c1.88,3.32.12,6.8-3.7,6.8l-109.75.21C200.55,249.29,198.15,246.46,200,243.13Z" fill="#26f0f1"/><path d="M208.14,242.19a1.54,1.54,0,0,1-.77-.21,1.49,1.49,0,0,1-.48-2l33.38-54.12a1.47,1.47,0,0,1,2.51,1.54L209.4,241.49A1.46,1.46,0,0,1,208.14,242.19Z" fill="#fff"/><g opacity="0.5"><g clip-path="url(#7efc491e-03d9-451c-864b-6830f58a68f7)"><g clip-path="url(#542bd08b-21cf-47e5-852a-95b720f26f44)"><circle cx="341.84" cy="117.4" r="2.01" fill="#fff"/><circle cx="341.84" cy="103.38" r="2.01" fill="#fff"/><circle cx="341.84" cy="131.43" r="2.01" fill="#fff"/><circle cx="347.45" cy="124.41" r="2.01" fill="#fff"/><circle cx="337.41" cy="124.41" r="2.01" fill="#fff"/><circle cx="347.39" cy="138.44" r="2.01" fill="#fff"/><circle cx="337.35" cy="138.44" r="2.01" fill="#fff"/><circle cx="346.92" cy="110.39" r="2.01" fill="#fff"/><circle cx="336.88" cy="110.39" r="2.01" fill="#fff"/><circle cx="341.84" cy="89.36" r="2.01" fill="#fff"/><circle cx="347.45" cy="82.34" r="2.01" fill="#fff"/><circle cx="337.41" cy="82.34" r="2.01" fill="#fff"/><circle cx="347.39" cy="96.37" r="2.01" fill="#fff"/><circle cx="337.35" cy="96.37" r="2.01" fill="#fff"/><circle cx="341.84" cy="159.47" r="2.01" fill="#fff"/><circle cx="341.84" cy="145.45" r="2.01" fill="#fff"/><circle cx="341.84" cy="173.49" r="2.01" fill="#fff"/><circle cx="347.45" cy="166.48" r="2.01" fill="#fff"/><circle cx="337.41" cy="166.48" r="2.01" fill="#fff"/><circle cx="346.92" cy="152.46" r="2.01" fill="#fff"/><circle cx="336.88" cy="152.46" r="2.01" fill="#fff"/><circle cx="302.72" cy="117.44" r="2.01" fill="#fff"/><circle cx="292.68" cy="117.44" r="2.01" fill="#fff"/><circle cx="312.76" cy="117.44" r="2.01" fill="#fff"/><circle cx="322.8" cy="117.44" r="2.01" fill="#fff"/><circle cx="332.84" cy="117.44" r="2.01" fill="#fff"/><circle cx="302.72" cy="103.4" r="2.01" fill="#fff"/><circle cx="292.68" cy="103.4" r="2.01" fill="#fff"/><circle cx="312.76" cy="103.4" r="2.01" fill="#fff"/><circle cx="322.8" cy="103.4" r="2.01" fill="#fff"/><circle cx="332.84" cy="103.4" r="2.01" fill="#fff"/><circle cx="302.72" cy="89.36" r="2.01" fill="#fff"/><circle cx="292.68" cy="89.36" r="2.01" fill="#fff"/><circle cx="312.76" cy="89.36" r="2.01" fill="#fff"/><circle cx="322.8" cy="89.36" r="2.01" fill="#fff"/><circle cx="332.84" cy="89.36" r="2.01" fill="#fff"/><circle cx="302.72" cy="131.48" r="2.01" fill="#fff"/><circle cx="292.68" cy="131.48" r="2.01" fill="#fff"/><circle cx="312.76" cy="131.48" r="2.01" fill="#fff"/><circle cx="322.8" cy="131.48" r="2.01" fill="#fff"/><circle cx="332.84" cy="131.48" r="2.01" fill="#fff"/><circle cx="302.72" cy="173.6" r="2.01" fill="#fff"/><circle cx="292.68" cy="173.6" r="2.01" fill="#fff"/><circle cx="312.76" cy="173.6" r="2.01" fill="#fff"/><circle cx="322.8" cy="173.6" r="2.01" fill="#fff"/><circle cx="332.84" cy="173.6" r="2.01" fill="#fff"/><circle cx="298.29" cy="124.46" r="2.01" fill="#fff"/><circle cx="288.25" cy="124.46" r="2.01" fill="#fff"/><circle cx="308.33" cy="124.46" r="2.01" fill="#fff"/><circle cx="318.37" cy="124.46" r="2.01" fill="#fff"/><circle cx="328.41" cy="124.46" r="2.01" fill="#fff"/><circle cx="298.23" cy="138.5" r="2.01" fill="#fff"/><circle cx="288.19" cy="138.5" r="2.01" fill="#fff"/><circle cx="308.27" cy="138.5" r="2.01" fill="#fff"/><circle cx="318.31" cy="138.5" r="2.01" fill="#fff"/><circle cx="328.35" cy="138.5" r="2.01" fill="#fff"/><circle cx="297.76" cy="110.42" r="2.01" fill="#fff"/><circle cx="287.72" cy="110.42" r="2.01" fill="#fff"/><circle cx="307.8" cy="110.42" r="2.01" fill="#fff"/><circle cx="317.84" cy="110.42" r="2.01" fill="#fff"/><circle cx="327.88" cy="110.42" r="2.01" fill="#fff"/><circle cx="253.7" cy="117.4" r="2.01" fill="#fff"/><circle cx="243.66" cy="117.4" r="2.01" fill="#fff"/><circle cx="263.74" cy="117.4" r="2.01" fill="#fff"/><circle cx="273.78" cy="117.4" r="2.01" fill="#fff"/><circle cx="283.82" cy="117.4" r="2.01" fill="#fff"/><circle cx="253.7" cy="103.38" r="2.01" fill="#fff"/><circle cx="243.66" cy="103.38" r="2.01" fill="#fff"/><circle cx="263.74" cy="103.38" r="2.01" fill="#fff"/><circle cx="273.78" cy="103.38" r="2.01" fill="#fff"/><circle cx="283.82" cy="103.38" r="2.01" fill="#fff"/><circle cx="253.7" cy="131.43" r="2.01" fill="#fff"/><circle cx="243.66" cy="131.43" r="2.01" fill="#fff"/><circle cx="263.74" cy="131.43" r="2.01" fill="#fff"/><circle cx="273.78" cy="131.43" r="2.01" fill="#fff"/><circle cx="283.82" cy="131.43" r="2.01" fill="#fff"/><circle cx="249.27" cy="124.41" r="2.01" fill="#fff"/><circle cx="239.23" cy="124.41" r="2.01" fill="#fff"/><circle cx="259.31" cy="124.41" r="2.01" fill="#fff"/><circle cx="269.35" cy="124.41" r="2.01" fill="#fff"/><circle cx="279.39" cy="124.41" r="2.01" fill="#fff"/><circle cx="249.21" cy="138.44" r="2.01" fill="#fff"/><circle cx="239.17" cy="138.44" r="2.01" fill="#fff"/><circle cx="259.25" cy="138.44" r="2.01" fill="#fff"/><circle cx="269.29" cy="138.44" r="2.01" fill="#fff"/><circle cx="279.33" cy="138.44" r="2.01" fill="#fff"/><circle cx="248.74" cy="110.39" r="2.01" fill="#fff"/><circle cx="238.7" cy="110.39" r="2.01" fill="#fff"/><circle cx="258.78" cy="110.39" r="2.01" fill="#fff"/><circle cx="268.82" cy="110.39" r="2.01" fill="#fff"/><circle cx="278.86" cy="110.39" r="2.01" fill="#fff"/><circle cx="298.29" cy="82.34" r="2.01" fill="#fff"/><circle cx="288.25" cy="82.34" r="2.01" fill="#fff"/><circle cx="308.33" cy="82.34" r="2.01" fill="#fff"/><circle cx="318.37" cy="82.34" r="2.01" fill="#fff"/><circle cx="328.41" cy="82.34" r="2.01" fill="#fff"/><circle cx="298.23" cy="96.38" r="2.01" fill="#fff"/><circle cx="288.19" cy="96.38" r="2.01" fill="#fff"/><circle cx="308.27" cy="96.38" r="2.01" fill="#fff"/><circle cx="318.31" cy="96.38" r="2.01" fill="#fff"/><circle cx="328.35" cy="96.38" r="2.01" fill="#fff"/><circle cx="253.7" cy="89.36" r="2.01" fill="#fff"/><circle cx="243.66" cy="89.36" r="2.01" fill="#fff"/><circle cx="263.74" cy="89.36" r="2.01" fill="#fff"/><circle cx="273.78" cy="89.36" r="2.01" fill="#fff"/><circle cx="283.82" cy="89.36" r="2.01" fill="#fff"/><circle cx="249.27" cy="82.34" r="2.01" fill="#fff"/><circle cx="239.23" cy="82.34" r="2.01" fill="#fff"/><circle cx="259.31" cy="82.34" r="2.01" fill="#fff"/><circle cx="269.35" cy="82.34" r="2.01" fill="#fff"/><circle cx="279.39" cy="82.34" r="2.01" fill="#fff"/><circle cx="249.21" cy="96.37" r="2.01" fill="#fff"/><circle cx="239.17" cy="96.37" r="2.01" fill="#fff"/><circle cx="259.25" cy="96.37" r="2.01" fill="#fff"/><circle cx="269.29" cy="96.37" r="2.01" fill="#fff"/><circle cx="279.33" cy="96.37" r="2.01" fill="#fff"/><circle cx="302.72" cy="159.56" r="2.01" fill="#fff"/><circle cx="292.68" cy="159.56" r="2.01" fill="#fff"/><circle cx="312.76" cy="159.56" r="2.01" fill="#fff"/><circle cx="322.8" cy="159.56" r="2.01" fill="#fff"/><circle cx="332.84" cy="159.56" r="2.01" fill="#fff"/><circle cx="302.72" cy="145.52" r="2.01" fill="#fff"/><circle cx="292.68" cy="145.52" r="2.01" fill="#fff"/><circle cx="312.76" cy="145.52" r="2.01" fill="#fff"/><circle cx="322.8" cy="145.52" r="2.01" fill="#fff"/><circle cx="332.84" cy="145.52" r="2.01" fill="#fff"/><circle cx="298.29" cy="166.58" r="2.01" fill="#fff"/><circle cx="288.25" cy="166.58" r="2.01" fill="#fff"/><circle cx="308.33" cy="166.58" r="2.01" fill="#fff"/><circle cx="318.37" cy="166.58" r="2.01" fill="#fff"/><circle cx="328.41" cy="166.58" r="2.01" fill="#fff"/><circle cx="297.76" cy="152.54" r="2.01" fill="#fff"/><circle cx="287.72" cy="152.54" r="2.01" fill="#fff"/><circle cx="307.8" cy="152.54" r="2.01" fill="#fff"/><circle cx="317.84" cy="152.54" r="2.01" fill="#fff"/><circle cx="327.88" cy="152.54" r="2.01" fill="#fff"/><circle cx="253.7" cy="159.47" r="2.01" fill="#fff"/><circle cx="243.66" cy="159.47" r="2.01" fill="#fff"/><circle cx="263.74" cy="159.47" r="2.01" fill="#fff"/><circle cx="273.78" cy="159.47" r="2.01" fill="#fff"/><circle cx="283.82" cy="159.47" r="2.01" fill="#fff"/><circle cx="253.7" cy="145.45" r="2.01" fill="#fff"/><circle cx="243.66" cy="145.45" r="2.01" fill="#fff"/><circle cx="263.74" cy="145.45" r="2.01" fill="#fff"/><circle cx="273.78" cy="145.45" r="2.01" fill="#fff"/><circle cx="283.82" cy="145.45" r="2.01" fill="#fff"/><circle cx="253.7" cy="173.49" r="2.01" fill="#fff"/><circle cx="243.66" cy="173.49" r="2.01" fill="#fff"/><circle cx="263.74" cy="173.49" r="2.01" fill="#fff"/><circle cx="273.78" cy="173.49" r="2.01" fill="#fff"/><circle cx="283.82" cy="173.49" r="2.01" fill="#fff"/><circle cx="249.27" cy="166.48" r="2.01" fill="#fff"/><circle cx="239.23" cy="166.48" r="2.01" fill="#fff"/><circle cx="259.31" cy="166.48" r="2.01" fill="#fff"/><circle cx="269.35" cy="166.48" r="2.01" fill="#fff"/><circle cx="279.39" cy="166.48" r="2.01" fill="#fff"/><circle cx="248.74" cy="152.46" r="2.01" fill="#fff"/><circle cx="238.7" cy="152.46" r="2.01" fill="#fff"/><circle cx="258.78" cy="152.46" r="2.01" fill="#fff"/><circle cx="268.82" cy="152.46" r="2.01" fill="#fff"/><circle cx="278.86" cy="152.46" r="2.01" fill="#fff"/></g><g clip-path="url(#ed798201-5dd2-4ed7-9870-c5a6e6238438)"><circle cx="341.84" cy="215.58" r="2.01" fill="#fff"/><circle cx="341.84" cy="201.56" r="2.01" fill="#fff"/><circle cx="341.84" cy="229.61" r="2.01" fill="#fff"/><circle cx="347.45" cy="222.6" r="2.01" fill="#fff"/><circle cx="337.41" cy="222.6" r="2.01" fill="#fff"/><circle cx="347.39" cy="236.62" r="2.01" fill="#fff"/><circle cx="337.35" cy="236.62" r="2.01" fill="#fff"/><circle cx="346.92" cy="208.57" r="2.01" fill="#fff"/><circle cx="336.88" cy="208.57" r="2.01" fill="#fff"/><circle cx="341.84" cy="187.54" r="2.01" fill="#fff"/><circle cx="347.45" cy="180.53" r="2.01" fill="#fff"/><circle cx="337.41" cy="180.53" r="2.01" fill="#fff"/><circle cx="347.39" cy="194.55" r="2.01" fill="#fff"/><circle cx="337.35" cy="194.55" r="2.01" fill="#fff"/><circle cx="341.84" cy="257.65" r="2.01" fill="#fff"/><circle cx="341.84" cy="243.63" r="2.01" fill="#fff"/><circle cx="341.84" cy="271.68" r="2.01" fill="#fff"/><circle cx="347.45" cy="264.66" r="2.01" fill="#fff"/><circle cx="337.41" cy="264.66" r="2.01" fill="#fff"/><circle cx="346.92" cy="250.64" r="2.01" fill="#fff"/><circle cx="336.88" cy="250.64" r="2.01" fill="#fff"/><circle cx="302.72" cy="215.62" r="2.01" fill="#fff"/><circle cx="292.68" cy="215.62" r="2.01" fill="#fff"/><circle cx="312.76" cy="215.62" r="2.01" fill="#fff"/><circle cx="322.8" cy="215.62" r="2.01" fill="#fff"/><circle cx="332.84" cy="215.62" r="2.01" fill="#fff"/><circle cx="302.72" cy="201.58" r="2.01" fill="#fff"/><circle cx="292.68" cy="201.58" r="2.01" fill="#fff"/><circle cx="312.76" cy="201.58" r="2.01" fill="#fff"/><circle cx="322.8" cy="201.58" r="2.01" fill="#fff"/><circle cx="332.84" cy="201.58" r="2.01" fill="#fff"/><circle cx="302.72" cy="187.55" r="2.01" fill="#fff"/><circle cx="292.68" cy="187.55" r="2.01" fill="#fff"/><circle cx="312.76" cy="187.55" r="2.01" fill="#fff"/><circle cx="322.8" cy="187.55" r="2.01" fill="#fff"/><circle cx="332.84" cy="187.55" r="2.01" fill="#fff"/><circle cx="302.72" cy="229.66" r="2.01" fill="#fff"/><circle cx="292.68" cy="229.66" r="2.01" fill="#fff"/><circle cx="312.76" cy="229.66" r="2.01" fill="#fff"/><circle cx="322.8" cy="229.66" r="2.01" fill="#fff"/><circle cx="332.84" cy="229.66" r="2.01" fill="#fff"/><circle cx="302.72" cy="271.78" r="2.01" fill="#fff"/><circle cx="292.68" cy="271.78" r="2.01" fill="#fff"/><circle cx="312.76" cy="271.78" r="2.01" fill="#fff"/><circle cx="322.8" cy="271.78" r="2.01" fill="#fff"/><circle cx="332.84" cy="271.78" r="2.01" fill="#fff"/><circle cx="298.29" cy="222.64" r="2.01" fill="#fff"/><circle cx="288.25" cy="222.64" r="2.01" fill="#fff"/><circle cx="308.33" cy="222.64" r="2.01" fill="#fff"/><circle cx="318.37" cy="222.64" r="2.01" fill="#fff"/><circle cx="328.41" cy="222.64" r="2.01" fill="#fff"/><circle cx="298.23" cy="236.68" r="2.01" fill="#fff"/><circle cx="288.19" cy="236.68" r="2.01" fill="#fff"/><circle cx="308.27" cy="236.68" r="2.01" fill="#fff"/><circle cx="318.31" cy="236.68" r="2.01" fill="#fff"/><circle cx="328.35" cy="236.68" r="2.01" fill="#fff"/><circle cx="297.76" cy="208.6" r="2.01" fill="#fff"/><circle cx="287.72" cy="208.6" r="2.01" fill="#fff"/><circle cx="307.8" cy="208.6" r="2.01" fill="#fff"/><circle cx="317.84" cy="208.6" r="2.01" fill="#fff"/><circle cx="327.88" cy="208.6" r="2.01" fill="#fff"/><circle cx="253.7" cy="215.58" r="2.01" fill="#fff"/><circle cx="243.66" cy="215.58" r="2.01" fill="#fff"/><circle cx="263.74" cy="215.58" r="2.01" fill="#fff"/><circle cx="273.78" cy="215.58" r="2.01" fill="#fff"/><circle cx="283.82" cy="215.58" r="2.01" fill="#fff"/><circle cx="253.7" cy="201.56" r="2.01" fill="#fff"/><circle cx="243.66" cy="201.56" r="2.01" fill="#fff"/><circle cx="263.74" cy="201.56" r="2.01" fill="#fff"/><circle cx="273.78" cy="201.56" r="2.01" fill="#fff"/><circle cx="283.82" cy="201.56" r="2.01" fill="#fff"/><circle cx="253.7" cy="229.61" r="2.01" fill="#fff"/><circle cx="243.66" cy="229.61" r="2.01" fill="#fff"/><circle cx="263.74" cy="229.61" r="2.01" fill="#fff"/><circle cx="273.78" cy="229.61" r="2.01" fill="#fff"/><circle cx="283.82" cy="229.61" r="2.01" fill="#fff"/><circle cx="249.27" cy="222.6" r="2.01" fill="#fff"/><circle cx="239.23" cy="222.6" r="2.01" fill="#fff"/><circle cx="259.31" cy="222.6" r="2.01" fill="#fff"/><circle cx="269.35" cy="222.6" r="2.01" fill="#fff"/><circle cx="279.39" cy="222.6" r="2.01" fill="#fff"/><circle cx="249.21" cy="236.62" r="2.01" fill="#fff"/><circle cx="239.17" cy="236.62" r="2.01" fill="#fff"/><circle cx="259.25" cy="236.62" r="2.01" fill="#fff"/><circle cx="269.29" cy="236.62" r="2.01" fill="#fff"/><circle cx="279.33" cy="236.62" r="2.01" fill="#fff"/><circle cx="248.74" cy="208.57" r="2.01" fill="#fff"/><circle cx="238.7" cy="208.57" r="2.01" fill="#fff"/><circle cx="258.78" cy="208.57" r="2.01" fill="#fff"/><circle cx="268.82" cy="208.57" r="2.01" fill="#fff"/><circle cx="278.86" cy="208.57" r="2.01" fill="#fff"/><circle cx="298.29" cy="180.53" r="2.01" fill="#fff"/><circle cx="288.25" cy="180.53" r="2.01" fill="#fff"/><circle cx="308.33" cy="180.53" r="2.01" fill="#fff"/><circle cx="318.37" cy="180.53" r="2.01" fill="#fff"/><circle cx="328.41" cy="180.53" r="2.01" fill="#fff"/><circle cx="298.23" cy="194.56" r="2.01" fill="#fff"/><circle cx="288.19" cy="194.56" r="2.01" fill="#fff"/><circle cx="308.27" cy="194.56" r="2.01" fill="#fff"/><circle cx="318.31" cy="194.56" r="2.01" fill="#fff"/><circle cx="328.35" cy="194.56" r="2.01" fill="#fff"/><circle cx="253.7" cy="187.54" r="2.01" fill="#fff"/><circle cx="243.66" cy="187.54" r="2.01" fill="#fff"/><circle cx="263.74" cy="187.54" r="2.01" fill="#fff"/><circle cx="273.78" cy="187.54" r="2.01" fill="#fff"/><circle cx="283.82" cy="187.54" r="2.01" fill="#fff"/><circle cx="249.27" cy="180.53" r="2.01" fill="#fff"/><circle cx="239.23" cy="180.53" r="2.01" fill="#fff"/><circle cx="259.31" cy="180.53" r="2.01" fill="#fff"/><circle cx="269.35" cy="180.53" r="2.01" fill="#fff"/><circle cx="279.39" cy="180.53" r="2.01" fill="#fff"/><circle cx="249.21" cy="194.55" r="2.01" fill="#fff"/><circle cx="239.17" cy="194.55" r="2.01" fill="#fff"/><circle cx="259.25" cy="194.55" r="2.01" fill="#fff"/><circle cx="269.29" cy="194.55" r="2.01" fill="#fff"/><circle cx="279.33" cy="194.55" r="2.01" fill="#fff"/><circle cx="302.72" cy="257.74" r="2.01" fill="#fff"/><circle cx="292.68" cy="257.74" r="2.01" fill="#fff"/><circle cx="312.76" cy="257.74" r="2.01" fill="#fff"/><circle cx="322.8" cy="257.74" r="2.01" fill="#fff"/><circle cx="332.84" cy="257.74" r="2.01" fill="#fff"/><circle cx="302.72" cy="243.7" r="2.01" fill="#fff"/><circle cx="292.68" cy="243.7" r="2.01" fill="#fff"/><circle cx="312.76" cy="243.7" r="2.01" fill="#fff"/><circle cx="322.8" cy="243.7" r="2.01" fill="#fff"/><circle cx="332.84" cy="243.7" r="2.01" fill="#fff"/><circle cx="298.29" cy="264.76" r="2.01" fill="#fff"/><circle cx="288.25" cy="264.76" r="2.01" fill="#fff"/><circle cx="308.33" cy="264.76" r="2.01" fill="#fff"/><circle cx="318.37" cy="264.76" r="2.01" fill="#fff"/><circle cx="328.41" cy="264.76" r="2.01" fill="#fff"/><circle cx="297.76" cy="250.72" r="2.01" fill="#fff"/><circle cx="287.72" cy="250.72" r="2.01" fill="#fff"/><circle cx="307.8" cy="250.72" r="2.01" fill="#fff"/><circle cx="317.84" cy="250.72" r="2.01" fill="#fff"/><circle cx="327.88" cy="250.72" r="2.01" fill="#fff"/><circle cx="253.7" cy="257.65" r="2.01" fill="#fff"/><circle cx="243.66" cy="257.65" r="2.01" fill="#fff"/><circle cx="263.74" cy="257.65" r="2.01" fill="#fff"/><circle cx="273.78" cy="257.65" r="2.01" fill="#fff"/><circle cx="283.82" cy="257.65" r="2.01" fill="#fff"/><circle cx="253.7" cy="243.63" r="2.01" fill="#fff"/><circle cx="243.66" cy="243.63" r="2.01" fill="#fff"/><circle cx="263.74" cy="243.63" r="2.01" fill="#fff"/><circle cx="273.78" cy="243.63" r="2.01" fill="#fff"/><circle cx="283.82" cy="243.63" r="2.01" fill="#fff"/><circle cx="253.7" cy="271.68" r="2.01" fill="#fff"/><circle cx="243.66" cy="271.68" r="2.01" fill="#fff"/><circle cx="263.74" cy="271.68" r="2.01" fill="#fff"/><circle cx="273.78" cy="271.68" r="2.01" fill="#fff"/><circle cx="283.82" cy="271.68" r="2.01" fill="#fff"/><circle cx="249.27" cy="264.66" r="2.01" fill="#fff"/><circle cx="239.23" cy="264.66" r="2.01" fill="#fff"/><circle cx="259.31" cy="264.66" r="2.01" fill="#fff"/><circle cx="269.35" cy="264.66" r="2.01" fill="#fff"/><circle cx="279.39" cy="264.66" r="2.01" fill="#fff"/><circle cx="248.74" cy="250.64" r="2.01" fill="#fff"/><circle cx="238.7" cy="250.64" r="2.01" fill="#fff"/><circle cx="258.78" cy="250.64" r="2.01" fill="#fff"/><circle cx="268.82" cy="250.64" r="2.01" fill="#fff"/><circle cx="278.86" cy="250.64" r="2.01" fill="#fff"/></g></g></g><path d="M313.58,250.91l-109.75-.21a5.91,5.91,0,0,1-5.31-2.83,6.39,6.39,0,0,1,.2-6.39l0-.06,50.23-81-1.34-21.8.84-.5a21,21,0,0,1,10.12-2.37A28.6,28.6,0,0,1,269,137.62l1,.44-.76,22.82,50.13,81.45a5.54,5.54,0,0,1,.18,5.61A6.67,6.67,0,0,1,313.58,250.91Zm-112-7.81a3.17,3.17,0,0,0-.21,3.14,2.75,2.75,0,0,0,2.51,1.22l109.76.21a3.56,3.56,0,0,0,3.13-1.37,2.38,2.38,0,0,0-.19-2.35l-50.6-82.2.73-21.51A27,27,0,0,0,258.6,139a19.35,19.35,0,0,0-7.6,1.5l1.27,20.76Z" fill="#ccc"/><path d="M264.93,112.54a1.62,1.62,0,0,1-1.62-1.62V65.73a42.39,42.39,0,0,0-84.78,0V81.88A1.67,1.67,0,0,1,177,83.59a1.74,1.74,0,0,1-1.66-1.71V65.73a45.63,45.63,0,0,1,91.26,0v45.19A1.63,1.63,0,0,1,264.93,112.54Z" fill="#5f4bb6"/><path d="M253.26,112.75a1.62,1.62,0,0,1-1.62-1.62V65.73a30.73,30.73,0,1,0-61.45,0V83.57a1.62,1.62,0,0,1-3.24,0V65.73a34,34,0,1,1,67.93,0v45.4A1.61,1.61,0,0,1,253.26,112.75Z" fill="#5f4bb6"/><path d="M97.62,142.7a1.61,1.61,0,0,0,1.62-1.62V80A32.36,32.36,0,0,1,164,80v2a1.62,1.62,0,0,0,3.24,0V80A35.6,35.6,0,0,0,96,80v61.1A1.62,1.62,0,0,0,97.62,142.7Z" fill="#5f4bb6"/><path d="M109.29,142.85a1.62,1.62,0,0,0,1.62-1.62V80a20.69,20.69,0,1,1,41.38,0v3.9a1.62,1.62,0,0,0,3.24,0V80a23.93,23.93,0,0,0-47.86,0v61.25A1.61,1.61,0,0,0,109.29,142.85Z" fill="#5f4bb6"/><path d="M273.41,113.93a1.15,1.15,0,0,1-.31,0,1.46,1.46,0,0,1-1.13-1.74,38.3,38.3,0,0,1,10.45-16.91c6.2-5.71,14.73-12.25,20.16-10.92A4.76,4.76,0,0,1,306,87.47a4.32,4.32,0,0,1-1,4.6c-2.9,3.05-10.42,4-17,2.18q-1.69,1.41-3.6,3.16a36.27,36.27,0,0,0-9.56,15.35A1.48,1.48,0,0,1,273.41,113.93ZM291,91.9c5.12.86,10.17-.1,11.83-1.86a1.36,1.36,0,0,0,.37-1.57,1.82,1.82,0,0,0-1.35-1.29C300.09,86.75,296.45,87.91,291,91.9Z" fill="#5f4bb6"/><path d="M89.43,264.55a17,17,0,0,1-16.28-12.26L61,208.26a17,17,0,0,1,3.9-16.15,15.55,15.55,0,0,1,1.49-1.41l16.21-13.76-.11-1.56-.55.12-2.17-1.42c-1.58-1-3.83-3.51-5.6-9.44a17.29,17.29,0,0,1,.67-11.51l.85-1.86,1.78-1a55.18,55.18,0,0,1,24.8-5.88A58.53,58.53,0,0,1,128,150.68l2.12,1.16.77,2.29a19.37,19.37,0,0,1,.46,9.56c-1.49,7.23-4.74,9.72-6.55,10.56l-1.19.55-.14,2.07,15.34,14a16.47,16.47,0,0,1,1.44,1.45,17,17,0,0,1,3.35,16.24l-13.41,44.14A16.94,16.94,0,0,1,114,264.55Zm6-82.24-21,17.82c-.15.13-.32.27-.44.39a4.62,4.62,0,0,0-1,4.39l12.1,44a4.57,4.57,0,0,0,4.38,3.24H114a4.55,4.55,0,0,0,4.35-3.19l13.42-44.14a4.65,4.65,0,0,0-.88-4.46c-.12-.13-.28-.27-.43-.41l-19.76-18,1.46-21.52,6.93,1.3c0-.18.08-.37.13-.58a5.55,5.55,0,0,0,.11-.89,46.05,46.05,0,0,0-17-3.54A44.11,44.11,0,0,0,85.91,160a4,4,0,0,0,.16,1.12c.09.29.17.56.26.81l7.51-1.61Z" fill="#fff"/><path d="M117.09,179.43l.78-11.6,4.31.81s2-.94,3.11-6.2a13.46,13.46,0,0,0-.27-6.33,52.26,52.26,0,0,0-22.71-5.53,48.93,48.93,0,0,0-21.79,5.09,11.29,11.29,0,0,0-.38,7.2c1.49,5,3.07,6,3.07,6l5-1.07L89,179.63l-18.6,15.78a12,12,0,0,0-1,.91A10.77,10.77,0,0,0,67,206.62l12.08,44a10.76,10.76,0,0,0,10.34,7.78H114a10.76,10.76,0,0,0,10.25-7.5l13.44-44.21a10.75,10.75,0,0,0-2.13-10.31,9.16,9.16,0,0,0-.94-.93Z" fill="#fff"/><path d="M114,261.6H89.43A14,14,0,0,1,76,251.47l-12.1-44A13.72,13.72,0,0,1,68.34,193l17.35-14.73-.47-6.43-2.66.57-1.13-.74c-.77-.51-2.74-2.28-4.39-7.82a14.36,14.36,0,0,1,.53-9.46l.44-1,.94-.52a52,52,0,0,1,23.36-5.5,55.26,55.26,0,0,1,24.26,5.92l1.11.61.41,1.2a16.63,16.63,0,0,1,.37,8c-1.28,6.19-3.86,8-4.91,8.49l-.94.44-1.75-.33-.43,6.4L136.81,193a13.56,13.56,0,0,1,1.21,1.2,14.12,14.12,0,0,1,2.77,13.42L127.36,251.8A14,14,0,0,1,114,261.6ZM91.15,163.9,92.39,181,72.54,197.88a9.22,9.22,0,0,0-.7.64,7.54,7.54,0,0,0-1.72,7.2l12.09,44a7.56,7.56,0,0,0,7.22,5.4H114a7.49,7.49,0,0,0,7.16-5.24l13.43-44.17a7.59,7.59,0,0,0-1.48-7.25,8.42,8.42,0,0,0-.67-.66l-18.7-17L114.89,164l6.12,1.14a12.3,12.3,0,0,0,1.1-3.33,10,10,0,0,0,.08-3.46,49.57,49.57,0,0,0-19.88-4.51A46.72,46.72,0,0,0,83.18,158a7.91,7.91,0,0,0,.07,4,18.55,18.55,0,0,0,1.3,3.36Z"/><path d="M128.53,202.33c-.08-.09-.3-.29-.39-.37l-6.88-7c-.78,2.35-1.47,4.17-4.05,3.68A8.93,8.93,0,0,0,107,195.6c-6.32,2.45-5.8,6.84-5.71,7.3a60.1,60.1,0,0,1-7.92-1.84c-11.59-3.23-13.72-2.4-16.87,1.11l10.61,44.27a5.7,5.7,0,0,0,4.67,3.66h20.89c1.83,0,3.43-1.81,4-3.54l12.73-40.21A4.23,4.23,0,0,0,128.53,202.33Z" fill="#86a5d9"/><circle cx="98.68" cy="192.9" r="4.75" fill="#86a5d9"/><g opacity="0.5"><g clip-path="url(#6dfd1bb7-c4b2-48de-905d-ee72c70c4c17)"><g clip-path="url(#862fea40-d605-4306-a79b-bc386e0a913a)"><circle cx="145.47" cy="215.58" r="2.01" fill="#fff"/><circle cx="145.47" cy="201.56" r="2.01" fill="#fff"/><circle cx="145.47" cy="229.61" r="2.01" fill="#fff"/><circle cx="151.09" cy="222.6" r="2.01" fill="#fff"/><circle cx="141.05" cy="222.6" r="2.01" fill="#fff"/><circle cx="151.02" cy="236.62" r="2.01" fill="#fff"/><circle cx="140.98" cy="236.62" r="2.01" fill="#fff"/><circle cx="150.55" cy="208.57" r="2.01" fill="#fff"/><circle cx="140.51" cy="208.57" r="2.01" fill="#fff"/><circle cx="145.47" cy="187.54" r="2.01" fill="#fff"/><circle cx="151.09" cy="180.53" r="2.01" fill="#fff"/><circle cx="141.05" cy="180.53" r="2.01" fill="#fff"/><circle cx="151.02" cy="194.55" r="2.01" fill="#fff"/><circle cx="140.98" cy="194.55" r="2.01" fill="#fff"/><circle cx="145.47" cy="257.65" r="2.01" fill="#fff"/><circle cx="145.47" cy="243.63" r="2.01" fill="#fff"/><circle cx="145.47" cy="271.68" r="2.01" fill="#fff"/><circle cx="151.09" cy="264.66" r="2.01" fill="#fff"/><circle cx="141.05" cy="264.66" r="2.01" fill="#fff"/><circle cx="150.55" cy="250.64" r="2.01" fill="#fff"/><circle cx="140.51" cy="250.64" r="2.01" fill="#fff"/><circle cx="106.35" cy="215.62" r="2.01" fill="#fff"/><circle cx="96.31" cy="215.62" r="2.01" fill="#fff"/><circle cx="116.39" cy="215.62" r="2.01" fill="#fff"/><circle cx="126.43" cy="215.62" r="2.01" fill="#fff"/><circle cx="136.47" cy="215.62" r="2.01" fill="#fff"/><circle cx="106.35" cy="201.58" r="2.01" fill="#fff"/><circle cx="96.31" cy="201.58" r="2.01" fill="#fff"/><circle cx="116.39" cy="201.58" r="2.01" fill="#fff"/><circle cx="126.43" cy="201.58" r="2.01" fill="#fff"/><circle cx="136.47" cy="201.58" r="2.01" fill="#fff"/><circle cx="106.35" cy="187.55" r="2.01" fill="#fff"/><circle cx="96.31" cy="187.55" r="2.01" fill="#fff"/><circle cx="116.39" cy="187.55" r="2.01" fill="#fff"/><circle cx="126.43" cy="187.55" r="2.01" fill="#fff"/><circle cx="136.47" cy="187.55" r="2.01" fill="#fff"/><circle cx="106.35" cy="229.66" r="2.01" fill="#fff"/><circle cx="96.31" cy="229.66" r="2.01" fill="#fff"/><circle cx="116.39" cy="229.66" r="2.01" fill="#fff"/><circle cx="126.43" cy="229.66" r="2.01" fill="#fff"/><circle cx="136.47" cy="229.66" r="2.01" fill="#fff"/><circle cx="106.35" cy="271.78" r="2.01" fill="#fff"/><circle cx="96.31" cy="271.78" r="2.01" fill="#fff"/><circle cx="116.39" cy="271.78" r="2.01" fill="#fff"/><circle cx="126.43" cy="271.78" r="2.01" fill="#fff"/><circle cx="136.47" cy="271.78" r="2.01" fill="#fff"/><circle cx="101.93" cy="222.64" r="2.01" fill="#fff"/><circle cx="91.89" cy="222.64" r="2.01" fill="#fff"/><circle cx="111.97" cy="222.64" r="2.01" fill="#fff"/><circle cx="122.01" cy="222.64" r="2.01" fill="#fff"/><circle cx="132.05" cy="222.64" r="2.01" fill="#fff"/><circle cx="101.86" cy="236.68" r="2.01" fill="#fff"/><circle cx="91.82" cy="236.68" r="2.01" fill="#fff"/><circle cx="111.9" cy="236.68" r="2.01" fill="#fff"/><circle cx="121.94" cy="236.68" r="2.01" fill="#fff"/><circle cx="131.98" cy="236.68" r="2.01" fill="#fff"/><circle cx="101.39" cy="208.6" r="2.01" fill="#fff"/><circle cx="91.35" cy="208.6" r="2.01" fill="#fff"/><circle cx="111.43" cy="208.6" r="2.01" fill="#fff"/><circle cx="121.47" cy="208.6" r="2.01" fill="#fff"/><circle cx="131.51" cy="208.6" r="2.01" fill="#fff"/><circle cx="57.33" cy="215.58" r="2.01" fill="#fff"/><circle cx="47.29" cy="215.58" r="2.01" fill="#fff"/><circle cx="67.37" cy="215.58" r="2.01" fill="#fff"/><circle cx="77.41" cy="215.58" r="2.01" fill="#fff"/><circle cx="87.45" cy="215.58" r="2.01" fill="#fff"/><circle cx="57.33" cy="201.56" r="2.01" fill="#fff"/><circle cx="47.29" cy="201.56" r="2.01" fill="#fff"/><circle cx="67.37" cy="201.56" r="2.01" fill="#fff"/><circle cx="77.41" cy="201.56" r="2.01" fill="#fff"/><circle cx="87.45" cy="201.56" r="2.01" fill="#fff"/><circle cx="57.33" cy="229.61" r="2.01" fill="#fff"/><circle cx="47.29" cy="229.61" r="2.01" fill="#fff"/><circle cx="67.37" cy="229.61" r="2.01" fill="#fff"/><circle cx="77.41" cy="229.61" r="2.01" fill="#fff"/><circle cx="87.45" cy="229.61" r="2.01" fill="#fff"/><circle cx="52.91" cy="222.6" r="2.01" fill="#fff"/><circle cx="42.87" cy="222.6" r="2.01" fill="#fff"/><circle cx="62.95" cy="222.6" r="2.01" fill="#fff"/><circle cx="72.99" cy="222.6" r="2.01" fill="#fff"/><circle cx="83.03" cy="222.6" r="2.01" fill="#fff"/><circle cx="52.84" cy="236.62" r="2.01" fill="#fff"/><circle cx="42.8" cy="236.62" r="2.01" fill="#fff"/><circle cx="62.88" cy="236.62" r="2.01" fill="#fff"/><circle cx="72.92" cy="236.62" r="2.01" fill="#fff"/><circle cx="82.96" cy="236.62" r="2.01" fill="#fff"/><circle cx="52.37" cy="208.57" r="2.01" fill="#fff"/><circle cx="42.33" cy="208.57" r="2.01" fill="#fff"/><circle cx="62.41" cy="208.57" r="2.01" fill="#fff"/><circle cx="72.45" cy="208.57" r="2.01" fill="#fff"/><circle cx="82.49" cy="208.57" r="2.01" fill="#fff"/><circle cx="101.93" cy="180.53" r="2.01" fill="#fff"/><circle cx="91.89" cy="180.53" r="2.01" fill="#fff"/><circle cx="111.97" cy="180.53" r="2.01" fill="#fff"/><circle cx="122.01" cy="180.53" r="2.01" fill="#fff"/><circle cx="132.05" cy="180.53" r="2.01" fill="#fff"/><circle cx="101.86" cy="194.56" r="2.01" fill="#fff"/><circle cx="91.82" cy="194.56" r="2.01" fill="#fff"/><circle cx="111.9" cy="194.56" r="2.01" fill="#fff"/><circle cx="121.94" cy="194.56" r="2.01" fill="#fff"/><circle cx="131.98" cy="194.56" r="2.01" fill="#fff"/><circle cx="57.33" cy="187.54" r="2.01" fill="#fff"/><circle cx="47.29" cy="187.54" r="2.01" fill="#fff"/><circle cx="67.37" cy="187.54" r="2.01" fill="#fff"/><circle cx="77.41" cy="187.54" r="2.01" fill="#fff"/><circle cx="87.45" cy="187.54" r="2.01" fill="#fff"/><circle cx="52.91" cy="180.53" r="2.01" fill="#fff"/><circle cx="42.87" cy="180.53" r="2.01" fill="#fff"/><circle cx="62.95" cy="180.53" r="2.01" fill="#fff"/><circle cx="72.99" cy="180.53" r="2.01" fill="#fff"/><circle cx="83.03" cy="180.53" r="2.01" fill="#fff"/><circle cx="52.84" cy="194.55" r="2.01" fill="#fff"/><circle cx="42.8" cy="194.55" r="2.01" fill="#fff"/><circle cx="62.88" cy="194.55" r="2.01" fill="#fff"/><circle cx="72.92" cy="194.55" r="2.01" fill="#fff"/><circle cx="82.96" cy="194.55" r="2.01" fill="#fff"/><circle cx="106.35" cy="257.74" r="2.01" fill="#fff"/><circle cx="96.31" cy="257.74" r="2.01" fill="#fff"/><circle cx="116.39" cy="257.74" r="2.01" fill="#fff"/><circle cx="126.43" cy="257.74" r="2.01" fill="#fff"/><circle cx="136.47" cy="257.74" r="2.01" fill="#fff"/><circle cx="106.35" cy="243.7" r="2.01" fill="#fff"/><circle cx="96.31" cy="243.7" r="2.01" fill="#fff"/><circle cx="116.39" cy="243.7" r="2.01" fill="#fff"/><circle cx="126.43" cy="243.7" r="2.01" fill="#fff"/><circle cx="136.47" cy="243.7" r="2.01" fill="#fff"/><circle cx="101.93" cy="264.76" r="2.01" fill="#fff"/><circle cx="91.89" cy="264.76" r="2.01" fill="#fff"/><circle cx="111.97" cy="264.76" r="2.01" fill="#fff"/><circle cx="122.01" cy="264.76" r="2.01" fill="#fff"/><circle cx="132.05" cy="264.76" r="2.01" fill="#fff"/><circle cx="101.39" cy="250.72" r="2.01" fill="#fff"/><circle cx="91.35" cy="250.72" r="2.01" fill="#fff"/><circle cx="111.43" cy="250.72" r="2.01" fill="#fff"/><circle cx="121.47" cy="250.72" r="2.01" fill="#fff"/><circle cx="131.51" cy="250.72" r="2.01" fill="#fff"/><circle cx="57.33" cy="257.65" r="2.01" fill="#fff"/><circle cx="47.29" cy="257.65" r="2.01" fill="#fff"/><circle cx="67.37" cy="257.65" r="2.01" fill="#fff"/><circle cx="77.41" cy="257.65" r="2.01" fill="#fff"/><circle cx="87.45" cy="257.65" r="2.01" fill="#fff"/><circle cx="57.33" cy="243.63" r="2.01" fill="#fff"/><circle cx="47.29" cy="243.63" r="2.01" fill="#fff"/><circle cx="67.37" cy="243.63" r="2.01" fill="#fff"/><circle cx="77.41" cy="243.63" r="2.01" fill="#fff"/><circle cx="87.45" cy="243.63" r="2.01" fill="#fff"/><circle cx="57.33" cy="271.68" r="2.01" fill="#fff"/><circle cx="47.29" cy="271.68" r="2.01" fill="#fff"/><circle cx="67.37" cy="271.68" r="2.01" fill="#fff"/><circle cx="77.41" cy="271.68" r="2.01" fill="#fff"/><circle cx="87.45" cy="271.68" r="2.01" fill="#fff"/><circle cx="52.91" cy="264.66" r="2.01" fill="#fff"/><circle cx="42.87" cy="264.66" r="2.01" fill="#fff"/><circle cx="62.95" cy="264.66" r="2.01" fill="#fff"/><circle cx="72.99" cy="264.66" r="2.01" fill="#fff"/><circle cx="83.03" cy="264.66" r="2.01" fill="#fff"/><circle cx="52.37" cy="250.64" r="2.01" fill="#fff"/><circle cx="42.33" cy="250.64" r="2.01" fill="#fff"/><circle cx="62.41" cy="250.64" r="2.01" fill="#fff"/><circle cx="72.45" cy="250.64" r="2.01" fill="#fff"/><circle cx="82.49" cy="250.64" r="2.01" fill="#fff"/></g></g></g><path d="M112.43,251.4H91.53a7.29,7.29,0,0,1-6.22-4.82L77,216l-2.58-9.39A5.81,5.81,0,0,1,75.71,201c.12-.13.41-.39.54-.5l20-18.2-.84-19.45,1.3-.3a28.4,28.4,0,0,1,7-.52,38.13,38.13,0,0,1,6.17.66l1.31.3-.76,19.84,15.38,14.66,3.24,2.92c.18.17.43.4.53.52h0a5.84,5.84,0,0,1,1.15,5.57L118,246.72C117.2,249.05,115.06,251.4,112.43,251.4ZM98.71,165.5l.79,18.19L78.39,203l-.33.28a2.6,2.6,0,0,0-.57,2.44l2.59,9.41,8.35,30.6a4.15,4.15,0,0,0,3.1,2.47h20.9c1,0,2.06-1.26,2.44-2.43l12.73-40.2a2.57,2.57,0,0,0-.5-2.45l-.24-.22-3.29-3L107.1,184.19l.71-18.54c-1-.13-2.39-.28-4.27-.36A29.26,29.26,0,0,0,98.71,165.5Z" fill="#ccc"/><path d="M190,549.06c-39.29-7.16-62.32-29.83-74.72-47.58a126.1,126.1,0,0,1-8.45-14l4.34,17.36-15.25-11-3.21-2.29c-13.2-9.38-37.78-26.86-51.8-53.89-16.23-31.27-14.19-66.45,6-104.68-.61,0-1.23,0-1.87,0-9.62,0-23-2-32.15-11.68C5.94,314,2.76,303.75,3.43,290.8c.07-17,10.23-26.69,27.89-26.69A65.69,65.69,0,0,1,46,266l1.51-54a8.27,8.27,0,0,1,8.27-8.05H312.58a8.27,8.27,0,0,1,8.24,7.51l5.05,54a45.67,45.67,0,0,1,12.5-1.95c7.7,0,25.6,3,25.6,30.78,0,22.9-11.9,33.9-21.88,39.09a51.38,51.38,0,0,1-14.9,4.91,259.34,259.34,0,0,1,6.91,57.64c0,46.33-15.71,71.67-62.27,100.43l-11.42,7.05.88-12.26a73.1,73.1,0,0,1-4.85,12.41c-11,21.88-32.34,37.15-63.48,45.39l-1.48.39Z"/><path d="M357.43,294.12c0-38.13-37.24-19.21-37.24-19.21l-6-64.26H54.77L53,274.91s-42.33-16.22-42.33,15.91C8.22,335,56.27,325.05,56.27,325.05s.39,1.28,1.17,3.59c-55.74,95.12,19.28,142.51,42.8,159.5-4.91-19.64,4.37-25.72,4.37-25.72s15.31,66.66,86.92,79.72c69.81-18.47,66.66-68.46,66.21-79.72,2.25,0,12.16,9,10.81,27.92,45.94-28.37,59-52.15,59-94.58a255.11,255.11,0,0,0-8.08-61.6c.48-1.42.72-2.2.72-2.2S357.43,332.26,357.43,294.12Z" fill="#7a5034"/><path d="M54.81,210.63H314.23l6,64.26S357.47,256,357.47,294.1s-37.23,37.84-37.23,37.84-45,144.72-131.52,143.22S56.31,325,56.31,325s-48,9.91-45.64-34.23c0-32.13,42.33-15.91,42.33-15.91Z" fill="#ffeede"/><path d="M320.23,274.72l-6-64.25H186.64l1,264.28c1.55.13-.48.22,1.1.25,86.47,1.5,131.51-143.23,131.51-143.23s37.23.3,37.23-37.83S320.23,274.72,320.23,274.72Z" fill="#efe0d3"/><path d="M238.47,376.1C238.92,391,228.14,418,186,418s-48.57-41.81-48.57-41.81,26.78-5.23,50.65-4.56S238.47,376.1,238.47,376.1Z"/><path d="M70.21,278.07s9.61-4.5,50.45-4.5,46.24-2.1,43.83,15-14.11,41.14-49.84,44.74S55.5,281.38,70.21,278.07Z" stroke="#b3b3b3" stroke-miterlimit="10" stroke-width="5"/><path d="M299.53,278.07s-9.61-4.5-50.44-4.5-46.24-2.1-43.84,15,14.11,41.14,49.84,44.74S314.24,281.38,299.53,278.07Z" stroke="#b3b3b3" stroke-miterlimit="10" stroke-width="5"/><path d="M176.2,293.09l-6,42s-20.12,3-20.12,9,21.92,2.4,21.92,2.4,6.61,6.31,15.31,6.31a17.45,17.45,0,0,0,13.22-5.71s23.42,0,23.42-5.4-19.52-8.41-19.52-8.41l-7.81-41.43" fill="none" stroke="#7a5034" stroke-linecap="round" stroke-miterlimit="10" stroke-width="3"/><path d="M70.25,260l.31,1.18a2.87,2.87,0,0,0,3.66,2L134.08,244a2.87,2.87,0,0,0,1.67-4.06l-.47-.91a2.88,2.88,0,0,0-3.42-1.42l-59.7,18.93A2.88,2.88,0,0,0,70.25,260Z" fill="#7a5034"/><path d="M242.28,239.27l-.78,2A2.87,2.87,0,0,0,243,244.9l50.25,22.88a2.87,2.87,0,0,0,3.83-1.47h0a2.89,2.89,0,0,0-1.35-3.72l-49.48-24.84A2.87,2.87,0,0,0,242.28,239.27Z" fill="#7a5034"/><line x1="56.38" y1="275.25" x2="64.95" y2="280.78" fill="none" stroke="#b3b3b3" stroke-linecap="round" stroke-miterlimit="10" stroke-width="5"/><line x1="303.8" y1="280.81" x2="316.89" y2="274.59" fill="none" stroke="#b3b3b3" stroke-linecap="round" stroke-miterlimit="10" stroke-width="5"/><path d="M163.89,291.89S175,283.78,187,283.78a25.65,25.65,0,0,1,18.55,7.51" fill="none" stroke="#b3b3b3" stroke-miterlimit="10" stroke-width="5"/><line x1="162.69" y1="276.57" x2="206.53" y2="276.57" fill="none" stroke="#b3b3b3" stroke-miterlimit="10" stroke-width="5"/><path d="M191.13,540.25c-36.07-6.71-57.33-27.48-68.83-43.76-12.52-17.73-16.48-34-16.52-34.18L105,459l-2.52,2.34c-.35.33-7.82,7.52-5.22,22.9a156.63,156.63,0,0,1-28.43-22.95c-13.9-14.36-23.08-30.12-27.27-46.84-6.34-25.24-1.21-52.51,15.24-81.09,2.71,6.68,5,12.52,7,17.77,8.09,21.13,11.79,30.77,23.43,30.77h0a28.82,28.82,0,0,0,5.75-.65c17.65-3.58,38.77-14.91,51.39-21.67l2.24-1.2,5.81.61c11.72,1.26,23.84,2.55,33.8,2.93.46,0,.93,0,1.43,0h0c12,0,33.78-5,38.69-6.16,5.08,4.06,32.59,25.58,45.27,25.58h0a10.51,10.51,0,0,0,1.41-.1c14.77-2,38.35-32.35,45.79-42.38,2.26,7.37,6.91,26.34,6.91,57.48,0,41.6-13.54,64-55.34,90.48,0-13.86-5.85-21.27-7.77-23.33-1.26-1.35-3.12-3-4.84-3h-2.08l.09,2.47c.24,5.68.85,20.75-7,36.36C239,518.89,219.57,532.65,191.13,540.25Zm-1.54-96.08c6.75,0,12.33,6.47,17.26,12.19a62.15,62.15,0,0,0,6,6.39l.68.59.89-.13c5.53-.76,23.51-8.46,32.51-26.5,8.57-17.18,6.31-37.74-6.72-61.12l-.43-.79-.88-.19a25.51,25.51,0,0,0-4.51-.88c-9.83-1.69-39.88-2.84-45.41-3-1.42,0-2.85-.06-4.3-.06a259.55,259.55,0,0,0-33.84,2.6c-8.17.69-13.44,1.3-13.49,1.3l-.77.09-.51.59c-.94,1.08-23,26.85-15.88,52.05,4.4,15.45,18.84,27.05,42.92,34.49l1.06.33.84-.72c4.9-4.22,8.23-7.44,10.9-10,5.94-5.75,7.35-7.12,13.5-7.2Z" fill="#7a5034"/><path d="M56.49,338c2,5.08,3.78,9.65,5.39,13.85,8.18,21.35,12.28,32.06,25.31,32.06a30.59,30.59,0,0,0,6.15-.69c17.93-3.64,39.22-15.05,51.93-21.87l1.7-.91,5.2.55c11.75,1.26,23.9,2.56,33.93,2.94.48,0,1,0,1.51,0,11.52,0,31.84-4.51,38.2-6,7.11,5.65,32.89,25.4,45.77,25.4a13,13,0,0,0,1.68-.1c14.27-1.93,35.25-27.48,44.74-40,2.66,10.22,5.69,28.42,5.69,53.08,0,21.49-3.67,37-11.9,50.24-7.8,12.56-20.14,24-39.59,36.67-.66-8.57-3.53-16.16-8.16-21.12-2.22-2.39-4.34-3.6-6.3-3.6h-4.17l.17,4.16,0,.39c.22,5.53.82,20.24-6.78,35.38-9.49,18.9-28.31,32.27-55.93,39.74a103.55,103.55,0,0,1-66.94-42.61,109.64,109.64,0,0,1-16.38-33.74l-1.59-6.69-5,4.69c-.35.33-7.15,6.86-6.33,20.36a152.62,152.62,0,0,1-24.52-20.34C56.6,445.76,47.6,430.31,43.49,413.94c-5.94-23.66-1.56-49.19,13-76m94.16,33.32c-8.17.69-13.29,1.28-13.5,1.31l-1.54.17-1,1.17c-1,1.12-23.76,27.69-16.3,53.91,4.6,16.15,19.49,28.21,44.26,35.86l2.12.66,1.67-1.45c4.95-4.26,8.44-7.64,11-10.1,5.88-5.7,6.78-6.57,12.14-6.64h.12c5.83,0,11.1,6.11,15.75,11.5a62,62,0,0,0,6.23,6.61l1.37,1.17,1.78-.24c3.21-.45,9.38-2.64,16.2-7.36a54.82,54.82,0,0,0,17.83-20.24,51.52,51.52,0,0,0,5.11-26.91c-.78-11.2-4.77-23.34-11.87-36.08l-.87-1.57-1.65-.36a27.41,27.41,0,0,0-4.79-.93c-11.22-1.91-45.28-3-45.61-3-1.41,0-2.88-.06-4.36-.06a262.64,262.64,0,0,0-34.06,2.61M57.11,328.85C2.22,419.58,73.73,472.68,100.24,488.38c-4.91-17.67,3.6-25.6,3.6-25.6s15.75,66.46,87.37,79.52c69.81-18.46,67-68.51,66.53-79.77,2.25,0,11.83,9.06,10.48,28,45.94-28.38,59.47-51.74,59.47-94.17,0-41.89-8.26-61.77-8.26-61.77s-30,42.44-46.7,44.69a8.56,8.56,0,0,1-1.15.07c-13.16,0-44.79-25.74-44.79-25.74s-26,6.33-39.18,6.33c-.47,0-.92,0-1.36,0-11.71-.45-26.45-2.17-40.08-3.6-11.9,6.34-34.9,19.17-53.62,23a27.42,27.42,0,0,1-5.36.61c-13.27,0-14.89-14.31-30.08-51Zm106.62,131c-77.77-24-26.12-83.32-26.12-83.32s5.21-.6,13.48-1.3a256,256,0,0,1,33.62-2.59c1.42,0,2.84,0,4.24.06,3.68.1,35.17,1.24,45.2,3a23.75,23.75,0,0,1,4.35.84c32.88,59-14.15,83.27-24.32,84.67-6.48-5.54-13.87-19.06-24.59-19.07h-.17c-9.92.13-9.47,3.75-25.69,17.71Z" fill="#603813"/><polyline points="173.19 422.42 169.13 429.88 179.8 426.63 180.91 437.74 187.6 429.93 198.71 434.13 197.21 426.93 206.22 426.63 201.72 420.02" fill="none" stroke="#7a5034" stroke-linecap="round" stroke-miterlimit="10" stroke-width="3"/><path d="M167.56,408.85s-3.83-9.4,18.75-6.46c23.56-3.92,18.86,7.13,18.86,7.13s-.68,4.06-19.14,4.06S167.56,408.85,167.56,408.85Z" fill="#ffd8d2"/><path d="M231.18,391.43s-33.6-3.29-43.18-3.3c-10,0-41.21,3.22-41.21,3.22a39.54,39.54,0,0,1-2.58-5.46c-.79-3.13-1.53-5.77-1.53-5.77s26.95-4.23,45.35-4.23c10.66,0,46.2,3.68,46.2,3.68a31.71,31.71,0,0,1-.61,6.26A57.08,57.08,0,0,1,231.18,391.43Z" fill="#fff"/><path d="M191.38,449.52l.33,85.75s29.94-8.92,43.69-26.59,16.69-48.2,11.29-58c-13.25,15.21-34.12,21.43-34.12,21.43S206.27,467.36,191.38,449.52Z" fill="url(#58f8725c-aa37-4440-a0e1-5f4aa3902524)"/><path d="M254.05,383.25s11.46,17.34,8.51,33.05a139.17,139.17,0,0,1-9.81,30.11s16,4.58,20.29,13.09,3.6,13.09,3.6,13.09,33.71-24.54,36.65-49.09.33-62.18.33-62.18S283.51,408.45,254.05,383.25Z" fill="url(#58f8725c-aa37-4440-a0e1-5f4aa3902524)"/><line x1="127.4" y1="273.61" x2="83.22" y2="317.79" fill="none" stroke="#4d4d4d" stroke-linecap="round" stroke-miterlimit="10" stroke-width="5"/><line x1="142.46" y1="275.58" x2="94.02" y2="324.01" fill="none" stroke="#4d4d4d" stroke-linecap="round" stroke-miterlimit="10" stroke-width="9"/><path d="M70.21,278.07s9.61-4.5,50.45-4.5,46.24-2.1,43.83,15-14.11,41.14-49.84,44.74S55.5,281.38,70.21,278.07Z" fill="none" stroke="#b3b3b3" stroke-miterlimit="10" stroke-width="5"/><line x1="269.87" y1="275.56" x2="225.01" y2="319.05" fill="none" stroke="#4d4d4d" stroke-linecap="round" stroke-miterlimit="10" stroke-width="5"/><line x1="284.9" y1="277.76" x2="235.72" y2="325.44" fill="none" stroke="#4d4d4d" stroke-linecap="round" stroke-miterlimit="10" stroke-width="9"/><path d="M299.53,278.07s-9.61-4.5-50.44-4.5-46.24-2.1-43.84,15,14.11,41.14,49.84,44.74S314.24,281.38,299.53,278.07Z" fill="none" stroke="#b3b3b3" stroke-miterlimit="10" stroke-width="5"/><path d="M54.81,210.63,53.19,269s4.62-18.61,19.88-31.66c-4.66-12.93-2.35-26.66-2.35-26.66Z" fill="#d8cbc3"/><path d="M314.13,210.51l5.46,57.74s-8.47-18-23.73-31.09c4.67-12.92,2.36-26.65,2.36-26.65Z" fill="#d8cbc3"/><path d="M167.56,408.85s0,4.73,18.47,4.73H187V402.29l-.65.1C163.73,399.45,167.56,408.85,167.56,408.85Z" fill="#ffd8d2"/><path d="M205.17,409.52s4.6-10.83-18.21-7.23v11.28C204.5,413.43,205.17,409.52,205.17,409.52Z" fill="#edc9c5"/><path d="M142.68,380.12s.74,2.64,1.53,5.77a39.54,39.54,0,0,0,2.58,5.46s29.25-3,40.17-3.21V375.89C168.61,376.05,142.68,380.12,142.68,380.12Z" fill="#fff"/><path d="M188,375.89H187v12.25h1c9.58,0,43.18,3.3,43.18,3.3a57.08,57.08,0,0,0,2.44-5.6,31.71,31.71,0,0,0,.61-6.26S198.69,375.89,188,375.89Z" fill="#efefef"/></svg>